<svg xmlns="http://www.w3.org/2000/svg" xmlns:xlink="http://www.w3.org/1999/xlink" version="1.1" width="2195.5420871379556" height="1636.475516778818"><desc>title%20Booking%20a%20ride%20flow%0A%0Aactor%20User%0Aparticipant%20%22Authentication%20and%20Authorization%20Service%22%20as%20AuthService%0Aparticipant%20BookingService%0Aparticipant%20CustomerService%0Aparticipant%20DriverService%0Aparticipant%20TransactionService%0Aparticipant%20%22Message%20Queue%22%20as%20MQ%0Adatabase%20DB%0A%0AUser%20-%3E%20AuthService%3A%20**Headers**%3A%20Jwt%20token%5Cn%3Cwordwrap%3A50%3E**Body**%3A%20user_id%2C%20current_location%2C%20destination_location%2C%20transportation_type%3C%2Fwordwrap%3E%0A%0Aalt%20Valid%20Token%0AAuthService%20-%3E%20BookingService%3A%3Cwordwrap%3A50%3Euser_id%2C%20current_location%2C%20destination_location%2C%20transportation_type%3C%2Fwordwrap%3E%0ABookingService%20-%3E%20CustomerService%3A%20Get%20user%20by%20user_id%0ACustomerService%20-%3E%20DB%3A%20%3Cwordwrap%3A50%3EGet%20user%20with%20id%20%3D%20user_id%20and%20status%20%3D%20FREE%20and%20lock%20that%20user%3C%2Fwordwrap%3E%0ACustomerService%20-%3E%20CustomerService%3A%20Set%20user%20status%20%3D%20BOOKING%0ACustomerService%20-%3E%20DB%3A%20release%20user%0ACustomerService%20-%3E%20BookingService%3A%20User%20with%20id%20%3D%20user_id%20and%20status%20%3D%20BOOKING%0Aloop%20While%20driver%20not%20found%20and%20time%20%3C%20TIMEOUT%0ABookingService%20-%3E%20MQ%3A%20%3Cwordwrap%3A50%3ESend%20%5Buser_id%2C%20current_location%2C%20destination_location%2C%20transportation_type%5D%20to%20priority%20queue%20with%20priority%20%3D%20current_priority%5C%2B%5C%2B%3C%2Fwordwrap%3E%0ADriverService%20%3C-%20MQ%3A%20Get%20%5Buser_id%2C%20current_location%2C%20destination_location%2C%20transportation_type%5D%0ADriverService%20-%3E%20DB%3A%20%3Cwordwrap%3A50%3EGet%20driver%20with%20transportation_type%20%3D%20transportation_type%20and%20status%20%3D%20FREE%20and%20dis(pos(driver)%2C%20current_location)%20%3D%20MIN%20and%20lock%20that%20driver%3C%2Fwordwrap%3E%0Aalt%20Driver%20found%0ADriverService%20-%3E%20DriverService%3A%20Update%20driver%20status%20%3D%20BOOKED%0ADriverService%20-%3E%20MQ%3A%20Return%20founded%20driver%0Aelse%20Driver%20not%20found%0ADriverService%20-%3E%20MQ%3A%20Return%20null%0Aend%0ABookingService%20%3C-%20MQ%3A%20Get%20found%20driver%0Abreak%20Driver%20found%0ABookingService%20-%3E%20BookingService%3A%20Set%20driver%20founded%20(break%20loop)%0Aend%0Aend%0ABookingService%20-%3E%20TransactionService%3A%20Create%20new%20transaction%20%5Buser_id%2C%20driver_id%2C%20current_location%2C%20destination_location%5D%0ATransactionService%20-%3E%20DB%3A%20Create%20new%20transaction%20%5Buser_id%2C%20driver_id%2C%20current_location%2C%20destination_location%5D%0ABookingService%20-%3E%20User%3A%20Return%20driver_id%0Aelse%20Invalid%20Token%0AAuthService%20-%3E%20User%3A%20403%3A%20Forbidden%20%0Aend</desc><defs/><g><g/><g/><g/><g/><g/><g/><g/><g/><g/><g/><g/><g/><g/><g/><g/><g/><g/><g/><g/><g/><g/><g/><g/><g/><g/><g/><g/><g/><g/><g/><g/><g/><g/><g/><g/><g/><g/><g/><g/><g/><g/><g/><g/><g/><g/><g/><g/><g/><g/><g/><g/><g/><g/><g/><g/><g/><g/><g/><g/><g/><g/><g/><g/><g/><g/><g/><g/><g/><g/><g/><g/><g/><g/><g/><g/><g/><g/><g/><g/><g/><g/><g/><g/><g/><g/><g/><g/><g/><g/><g/><g/><g/><g/><g/><g/><g/><g/><g/><g/><g/><g/><g/><g/><g/><g/><g/><g/><g/><g/><g/><g/><g/><g/><g/><g/><g/><g/><g/><g/><g/><g/><g/><g/><g/><g/><g/><g/><g/><g/><g/><g/><g/><g/><g/><g/><g/><g/><g/><g/><g/><g/><g/><g/><g/><g/><g/><g/><g/><g/><g/><g/><g/><g/><g/><g/><g/><g/><g/><g/><g/><g/><g/><g/><g/><g/><g/><g/><g/><g/><g/><g/><g/><g/><g/><g/><g/><g/><g/><g/><g/><g/><g/><g/><g/><g/><g/><g/><g/><g/><g/><g/><g/><g/><g/><g/><g/><g/><g/><g/><g/><g/><g/><g/><g/><g/><g/><g/><g/><g/><g/><g/><g/><g/><g/><g/><g/><g/><g/><g/><g/><g/><g/><g/><g/><g/><g/><g/><g/><g/><g/><g/><g/><g/><g/><g/><g/><g/><g/><g/><g/><g/><g/><g/><g/><g/><g/><g/><g/><g/><g/><g/><g/><g/><g/><g/><g/><g/><g/><g/><g/><g/><g/><g><rect fill="white" stroke="none" x="0" y="0" width="2195" height="1636"/></g><g/><g><path fill="none" stroke="black" paint-order="fill stroke markers" d=" M 73.50841485 128.73625218881818 L 73.50841485 1636.475516778818" stroke-miterlimit="10" stroke-width="1.3612669416666667" stroke-dasharray="12.565541,5.445067766666667"/><path fill="none" stroke="black" paint-order="fill stroke markers" d=" M 380.3114954354818 128.73625218881818 L 380.3114954354818 1636.475516778818" stroke-miterlimit="10" stroke-width="1.3612669416666667" stroke-dasharray="12.565541,5.445067766666667"/><path fill="none" stroke="black" paint-order="fill stroke markers" d=" M 726.2197701127604 128.73625218881818 L 726.2197701127604 1636.475516778818" stroke-miterlimit="10" stroke-width="1.3612669416666667" stroke-dasharray="12.565541,5.445067766666667"/><path fill="none" stroke="black" paint-order="fill stroke markers" d=" M 1067.9978568017577 128.73625218881818 L 1067.9978568017577 1636.475516778818" stroke-miterlimit="10" stroke-width="1.3612669416666667" stroke-dasharray="12.565541,5.445067766666667"/><path fill="none" stroke="black" paint-order="fill stroke markers" d=" M 1280.8590901141274 128.73625218881818 L 1280.8590901141274 1636.475516778818" stroke-miterlimit="10" stroke-width="1.3612669416666667" stroke-dasharray="12.565541,5.445067766666667"/><path fill="none" stroke="black" paint-order="fill stroke markers" d=" M 1536.5261562247395 128.73625218881818 L 1536.5261562247395 1636.475516778818" stroke-miterlimit="10" stroke-width="1.3612669416666667" stroke-dasharray="12.565541,5.445067766666667"/><path fill="none" stroke="black" paint-order="fill stroke markers" d=" M 1821.1123126063476 128.73625218881818 L 1821.1123126063476 1636.475516778818" stroke-miterlimit="10" stroke-width="1.3612669416666667" stroke-dasharray="12.565541,5.445067766666667"/><path fill="none" stroke="black" paint-order="fill stroke markers" d=" M 2105.6984689879555 128.73625218881818 L 2105.6984689879555 1636.475516778818" stroke-miterlimit="10" stroke-width="1.3612669416666667" stroke-dasharray="12.565541,5.445067766666667"/></g><g><g><path fill="white" stroke="black" paint-order="fill stroke markers" d=" M 82.819480731 59.63834222981819 A 9.311065881 9.311065881 0 1 1 82.81947607546743 59.62903116548903 M 73.50841485 68.9494081108182 L 73.50841485 88.8783561368182 M 61.747068473999995 76.13689756281819 L 85.26976122599999 76.13689756281819 M 73.50841485 88.8783561368182 L 61.747068473999995 107.50048789881819 M 73.50841485 88.8783561368182 L 85.26976122599999 107.50048789881819" stroke-miterlimit="10" stroke-width="2.7769845610000004" stroke-dasharray=""/></g><g><g/><text fill="black" stroke="none" font-family="sans-serif" font-size="11pt" font-style="normal" font-weight="normal" text-decoration="normal" x="58.032401666406244" y="123.83569119881818" text-anchor="start" dominant-baseline="alphabetic" xml:space="preserve">User</text></g><path fill="none" stroke="none"/><g><path fill="white" stroke="black" paint-order="fill stroke markers" d=" M 230.56567461084117 84.7945553118182 L 530.0573162601224 84.7945553118182 L 530.0573162601224 128.73625218881818 L 230.56567461084117 128.73625218881818 L 230.56567461084117 84.7945553118182 Z" stroke-miterlimit="10" stroke-width="2.613632528" stroke-dasharray=""/></g><g><text fill="black" stroke="none" font-family="sans-serif" font-size="11pt" font-style="normal" font-weight="normal" text-decoration="normal" x="248.28937019134116" y="112.40104888881818" text-anchor="start" dominant-baseline="alphabetic" xml:space="preserve">Authentication and Authorization Service</text></g><path fill="none" stroke="none"/><g><path fill="white" stroke="black" paint-order="fill stroke markers" d=" M 657.5655401694675 84.63120327881819 L 794.8740000560534 84.63120327881819 L 794.8740000560534 128.73625218881818 L 657.5655401694675 128.73625218881818 L 657.5655401694675 84.63120327881819 Z" stroke-miterlimit="10" stroke-width="2.613632528" stroke-dasharray=""/></g><g><g/><text fill="black" stroke="none" font-family="sans-serif" font-size="11pt" font-style="normal" font-weight="normal" text-decoration="normal" x="675.2892357499675" y="112.40104888881817" text-anchor="start" dominant-baseline="alphabetic" xml:space="preserve">BookingService</text></g><path fill="none" stroke="none"/><g><path fill="white" stroke="black" paint-order="fill stroke markers" d=" M 994.0608738677421 84.63120327881819 L 1141.9348397357733 84.63120327881819 L 1141.9348397357733 128.73625218881818 L 994.0608738677421 128.73625218881818 L 994.0608738677421 84.63120327881819 Z" stroke-miterlimit="10" stroke-width="2.613632528" stroke-dasharray=""/></g><g><g/><text fill="black" stroke="none" font-family="sans-serif" font-size="11pt" font-style="normal" font-weight="normal" text-decoration="normal" x="1011.7845694482421" y="112.40104888881817" text-anchor="start" dominant-baseline="alphabetic" xml:space="preserve">CustomerService</text></g><path fill="none" stroke="none"/><g><path fill="white" stroke="black" paint-order="fill stroke markers" d=" M 1219.148311098569 84.63120327881819 L 1342.5698691296861 84.63120327881819 L 1342.5698691296861 128.73625218881818 L 1219.148311098569 128.73625218881818 L 1219.148311098569 84.63120327881819 Z" stroke-miterlimit="10" stroke-width="2.613632528" stroke-dasharray=""/></g><g><g/><text fill="black" stroke="none" font-family="sans-serif" font-size="11pt" font-style="normal" font-weight="normal" text-decoration="normal" x="1236.8720066790688" y="112.40104888881817" text-anchor="start" dominant-baseline="alphabetic" xml:space="preserve">DriverService</text></g><path fill="none" stroke="none"/><g><path fill="white" stroke="black" paint-order="fill stroke markers" d=" M 1456.3364953732435 84.63120327881819 L 1616.7158170762357 84.63120327881819 L 1616.7158170762357 128.73625218881818 L 1456.3364953732435 128.73625218881818 L 1456.3364953732435 84.63120327881819 Z" stroke-miterlimit="10" stroke-width="2.613632528" stroke-dasharray=""/></g><g><g/><text fill="black" stroke="none" font-family="sans-serif" font-size="11pt" font-style="normal" font-weight="normal" text-decoration="normal" x="1474.0601909537434" y="112.40104888881817" text-anchor="start" dominant-baseline="alphabetic" xml:space="preserve">TransactionService</text></g><path fill="none" stroke="none"/><g><path fill="white" stroke="black" paint-order="fill stroke markers" d=" M 1749.601942526336 84.7945553118182 L 1892.6226826863594 84.7945553118182 L 1892.6226826863594 128.73625218881818 L 1749.601942526336 128.73625218881818 L 1749.601942526336 84.7945553118182 Z" stroke-miterlimit="10" stroke-width="2.613632528" stroke-dasharray=""/></g><g><text fill="black" stroke="none" font-family="sans-serif" font-size="11pt" font-style="normal" font-weight="normal" text-decoration="normal" x="1767.3256381068359" y="112.40104888881818" text-anchor="start" dominant-baseline="alphabetic" xml:space="preserve">Message Queue</text></g><g><path fill="white" stroke="black" paint-order="fill stroke markers" d=" M 2081.8490721699554 96.71925372081819 L 2081.8490721699554 62.41532679081819 L 2129.5478658059556 62.41532679081819 L 2129.5478658059556 96.71925372081819" stroke-miterlimit="10" stroke-width="2.7769845610000004" stroke-dasharray=""/><path fill="white" stroke="black" paint-order="fill stroke markers" d=" M 2129.5478658059556 61.22285694991819 L 2129.5466733460516 61.33066749483481 L 2129.5430960855856 61.43846725878678 L 2129.5371343822803 61.546245461887544 L 2129.528788832301 61.65399132640659 L 2129.5180602701957 61.761694077847274 L 2129.504949768812 61.86934294602419 L 2129.489458639189 61.976927166140236 L 2129.471588430426 62.084435979863045 L 2129.45134092953 62.19185863640084 L 2129.428718161234 62.299184393577484 L 2129.403722387796 62.4064025189067 L 2129.3763561087717 62.51350229066531 L 2129.346622060767 62.62047299896537 L 2129.314523217162 62.7273039468252 L 2129.2800627878137 62.83398445123905 L 2129.243244218737 62.94050384424536 L 2129.2040711917575 63.04685147399361 L 2129.162547624146 63.15301670580944 L 2129.118677668224 63.25898892325815 L 2129.0724657109504 63.364757529206294 L 2129.023916373483 63.47031194688142 L 2128.973034510715 63.575641620929716 L 2128.9198252107903 63.68073601847156 L 2128.8642937945942 63.78558463015478 L 2128.806445815222 63.89017697120557 L 2128.7462870574236 63.994502582477 L 2128.683823537025 64.09855103149486 L 2128.619061500326 64.20231191350096 L 2128.552007423476 64.3057748524936 L 2128.482668011827 64.40892950226505 L 2128.4110501992623 64.51176554743633 L 2128.3371611475036 64.61427270448858 L 2128.261008245395 64.71644072279157 L 2128.182599108162 64.81825938562858 L 2128.1019415766536 64.91971851121816 L 2128.0190437165566 65.02080795373233 L 2127.9339138175865 65.12151760431107 L 2127.846560392663 65.22183739207324 L 2127.756992177056 65.32175728512367 L 2127.6652181275117 65.42126729155632 L 2127.571247421359 65.52035746045347 L 2127.475089455591 65.6190178828808 L 2127.376753845923 65.71723869287828 L 2127.276250425834 65.81501006844678 L 2127.1735892455827 65.91232223253022 L 2127.068780571202 66.00916545399325 L 2126.961834883471 66.10553004859446 L 2126.8527628768697 66.20140637995469 L 2126.7415754585086 66.29678486052069 L 2126.628283747036 66.39165595252388 L 2126.512899071529 66.48601016893414 L 2126.395432970359 66.57983807440844 L 2126.275897190038 66.67313028623443 L 2126.154303684045 66.76587747526865 L 2126.0306646116283 66.85807036686953 L 2125.9049923365933 66.94969974182469 L 2125.7772994260617 67.04075643727302 L 2125.6475986492187 67.13123134762085 L 2125.515902976034 67.22111542545254 L 2125.3822255759646 67.3103996824352 L 2125.2465798166395 67.39907519021754 L 2125.1089792625216 67.4871330813227 L 2124.969437673552 67.57456455003492 L 2124.8279690037725 67.6613608532802 L 2124.6845873999328 67.74751331150055 L 2124.5393072000734 67.83301330952195 L 2124.3921429320935 67.91785229741582 L 2124.2431093122973 68.00202179135408 L 2124.0922212439227 68.08551337445749 L 2123.93949381565 68.1683186976373 L 2123.784942300096 68.25042948043021 L 2123.6285821522824 68.33183751182635 L 2123.4704290080945 68.41253465109044 L 2123.310498682714 68.4925128285758 L 2123.148807169041 68.5717640465313 L 2122.9853706360914 68.65028037990122 L 2122.820205427383 68.72805397711764 L 2122.6533280592985 68.80507706088565 L 2122.484755219436 68.88134192896105 L 2122.314503764939 68.95684095492061 L 2122.142590720811 69.03156658892462 L 2121.969033278213 69.10551135847197 L 2121.7938487927445 69.17866786914732 L 2121.6170547827087 69.25102880536058 L 2121.4386689273583 69.3225869310784 L 2121.2587090651314 69.39333509054786 L 2121.077193191863 69.46326620901198 L 2120.89413945899 69.53237329341717 L 2120.709566171733 69.60064943311258 L 2120.5234917872667 69.66808780054113 L 2120.335934912875 69.7346816519223 L 2120.1469143040886 69.80042432792644 L 2119.9564488628102 69.86530925434072 L 2119.7645576354266 69.92932994272657 L 2119.5712598109 69.9924799910685 L 2119.3765747188513 70.05475308441433 L 2119.180521827628 70.1161429955066 L 2118.983120742356 70.17664358540536 L 2118.784391202979 70.23624880410202 L 2118.5843530822854 70.29495269112441 L 2118.3830263839204 70.35274937613272 L 2118.180431240386 70.40963307950663 L 2117.976587911028 70.46559811292322 L 2117.77151678001 70.52063887992576 L 2117.5652383542733 70.57474987648341 L 2117.357773261489 70.62792569154163 L 2117.1491422479935 70.68016100756323 L 2116.939366176714 70.73145060106012 L 2116.728466025083 70.78178934311569 L 2116.51646288294 70.8311721998977 L 2116.303377950422 70.8795942331616 L 2116.089232535846 70.92705060074444 L 2115.8740480535735 70.973536557049 L 2115.6578460218743 71.01904745351838 L 2115.440648060771 71.06357873910088 L 2115.222475889879 71.10712596070502 L 2115.0033513262333 71.14968476364494 L 2114.783296282108 71.19125089207583 L 2114.562332762824 71.23182018941947 L 2114.340482864549 71.27138859877994 L 2114.117768772088 71.30995216334925 L 2113.8942127566647 71.34750702680313 L 2113.6698371736943 71.38404943368649 L 2113.4446644605478 71.4195757297891 L 2113.2187171343094 71.45408236251096 L 2112.9920177895233 71.48756588121756 L 2112.7645890959348 71.52002293758491 L 2112.536453796224 71.55145028593446 L 2112.307634703731 71.58184478355753 L 2112.0781547001734 71.61120339102969 L 2111.8480367333614 71.63952317251467 L 2111.617303814899 71.66680129605793 L 2111.3859790178867 71.69303503386982 L 2111.1540854746113 71.71822176259843 L 2110.921646374233 71.7423589635919 L 2110.688684960469 71.7654442231502 L 2110.455224529266 71.78747523276665 L 2110.2212884264727 71.80844978935863 L 2109.986900045505 71.82836579548797 L 2109.752082825005 71.84722125957065 L 2109.516860246499 71.86501429607597 L 2109.2812558320497 71.8817431257151 L 2109.0452931419013 71.89740607561903 L 2108.8089957721268 71.91200157950583 L 2108.5723873522657 71.92552817783725 L 2108.335491542963 71.93798451796474 L 2108.0983320336027 71.94936935426468 L 2107.8609325399375 71.95968154826289 L 2107.6233168017193 71.96892006874862 L 2107.3855085803234 71.97708399187748 L 2107.147531656374 71.98417250126396 L 2106.909409827366 71.99018488806304 L 2106.671166905283 71.99512055104105 L 2106.432826714218 71.99897899663581 L 2106.1944130879933 72.00175983900598 L 2105.955949867772 72.00346280006961 L 2105.7174608996766 72.00408770953204 L 2105.478970032406 72.00363450490285 L 2105.240501114848 72.0021032315021 L 2105.002077993696 71.99949404245586 L 2104.7637245110627 71.9958071986809 L 2104.5254645020987 71.99104306885846 L 2104.2873217926053 71.98520212939759 L 2104.0493201966556 71.97828496438737 L 2103.811483514211 71.97029226553852 L 2103.573835528741 71.96122483211428 L 2103.3364000048464 71.95108357085043 L 2103.099200685882 71.93986949586466 L 2102.8622612915815 71.92758372855508 L 2102.625605515687 71.91422749748824 L 2102.3892570235794 71.89980213827607 L 2102.15323944991 71.8843090934425 L 2101.9175763962407 71.86774991227908 L 2101.6822914286795 71.85012625069015 L 2101.4474080755276 71.83143987102717 L 2101.212949824924 71.81169264191253 L 2100.9789401224994 71.79088653805269 L 2100.745402369028 71.7690236400407 L 2100.512359918091 71.74610613414815 L 2100.2798360737393 71.72213631210651 L 2100.0478540881636 71.69711657087802 L 2099.816437159369 71.67104941241597 L 2099.5856084288553 71.64393744341446 L 2099.3553909793036 71.6157833750478 L 2099.125807832267 71.58659002269937 L 2098.8968819458687 71.55636030568009 L 2098.668636212507 71.52509724693644 L 2098.4410934565644 71.49280397274828 L 2098.214276432127 71.45948371241609 L 2097.9882078207083 71.42513979793813 L 2097.7629102289816 71.38977566367726 L 2097.5384061865175 71.35339484601741 L 2097.3147181435334 71.31600098301004 L 2097.0918684686476 71.27759781401028 L 2096.8698794466413 71.23818917930303 L 2096.6487732762325 71.19777901971894 L 2096.428572067853 71.15637137624027 L 2096.2092978414407 71.11397038959687 L 2095.9909725242355 71.07058029985207 L 2095.7736179485873 71.02620544597868 L 2095.557255849772 70.98085026542512 L 2095.34190786382 70.93451929367163 L 2095.1275955253495 70.8872171637768 L 2094.9143402654167 70.8389486059142 L 2094.702163409369 70.78971844689937 L 2094.4910861747157 70.7395316097072 L 2094.2811296690043 70.6883931129796 L 2094.0723148877105 70.6363080705236 L 2093.8646627121384 70.58328169080006 L 2093.658193907332 70.52931927640276 L 2093.45292912 70.47442622352818 L 2093.248888876451 70.41860802143584 L 2093.046093580538 70.36187025189946 L 2092.8445635116223 70.3042185886487 L 2092.6443188225426 70.24565879680183 L 2092.4453795376007 70.18619673228926 L 2092.24776555056 70.12583834126788 L 2092.051496622654 70.06458965952649 L 2091.8565923806123 70.00245681188221 L 2091.6630723146964 69.93944601156807 L 2091.470955776752 69.87556355961155 L 2091.280261978272 69.81081584420461 L 2091.0910099884777 69.74520934006487 L 2090.903218732411 69.67875060778805 L 2090.71690698904 69.61144629319199 L 2090.532093389385 69.54330312665208 L 2090.3487964146507 69.47432792242817 L 2090.167034394383 69.40452757798322 L 2089.9868255046313 69.3339090732935 L 2089.808187766135 69.26247947015062 L 2089.631139042519 69.19024591145539 L 2089.4556970385083 69.11721562050347 L 2089.2818792981566 69.0433959002631 L 2089.109703203094 68.96879413264479 L 2088.9391859707853 68.89341777776313 L 2088.7703446528126 68.81727437319081 L 2088.603196133167 68.74037153320482 L 2088.4377571265604 68.66271694802508 L 2088.2740441767564 68.58431838304537 L 2088.112073654913 68.5051836780569 L 2087.951861757948 68.4253207464642 L 2087.793424506917 68.34473757449386 L 2087.636777745413 68.26344222039596 L 2087.4819371379817 68.18144281363814 L 2087.3289181685554 68.09874755409275 L 2087.177736138903 68.01536471121685 L 2087.0284061671023 67.9313026232252 L 2086.8809431860245 67.84656969625658 L 2086.735361941846 67.76117440353308 L 2086.59167699257 67.67512528451279 L 2086.4499027065704 67.5884309440359 L 2086.310053261159 67.50110005146425 L 2086.172142641163 67.41314133981427 L 2086.0361846375304 67.32456360488388 L 2085.902192845947 67.23537570437271 L 2085.7701806654813 67.14558655699653 L 2085.640161297241 67.05520514159522 L 2085.5121477430544 66.96424049623502 L 2085.3861528041707 66.87270171730466 L 2085.2621890799783 66.78059795860575 L 2085.1402689667466 66.68793843043741 L 2085.020404656385 66.59473239867523 L 2084.9026081352254 66.50098918384472 L 2084.786891182821 66.40671816018926 L 2084.6732653707704 66.31192875473263 L 2084.5617420615613 66.2166304463364 L 2084.4523324074303 66.120832764752 L 2084.345047349253 66.02454528966774 L 2084.2398976154445 65.92777764975091 L 2084.1368937208913 65.83053952168484 L 2084.0360459658973 65.73284062920132 L 2083.937364435153 65.63469074210818 L 2083.8408589967303 65.53609967531233 L 2083.7465393010916 65.4370772878383 L 2083.6544147801287 65.33763348184232 L 2083.5644946462166 65.23777820162212 L 2083.4767878912935 65.13752143262249 L 2083.3913032859623 65.03687320043682 L 2083.308049378612 64.93584356980442 L 2083.227034494564 64.83444264360419 L 2083.1482667352393 64.73268056184422 L 2083.0717539773477 64.63056750064791 L 2082.9975038721022 64.52811367123628 L 2082.9255238444507 64.42532931890689 L 2082.855821092336 64.32222472200931 L 2082.7884025859753 64.21881019091732 L 2082.7232750671633 64.11509606699785 L 2082.6604450485975 64.01109272157687 L 2082.5999188132273 63.90681055490224 L 2082.541702413626 63.80225999510374 L 2082.4858016713847 63.697451497150205 L 2082.432222176531 63.59239554180411 L 2082.3809692869704 63.48710263457343 L 2082.3320481279484 63.381583304661156 L 2082.2854635915405 63.27584810391234 L 2082.241220336162 63.16990760575894 L 2082.1993227861003 63.06377240416249 L 2082.1597751310765 62.95745311255472 L 2082.122581325823 62.85096036277616 L 2082.087745089689 62.744304804013076 L 2082.0552699062696 62.63749710173245 L 2082.0251590230555 62.530547936615505 L 2081.99741545111 62.423468003489624 L 2081.972041964768 62.316268010258895 L 2081.9490411013558 62.208958676833305 L 2081.9284151609413 62.10155073405677 L 2081.910166206101 61.99405492263407 L 2081.894296061716 61.88648199205676 L 2081.8808063147862 61.77884269952825 L 2081.869698314276 61.6711478088881 L 2081.8609731709757 61.56340808953563 L 2081.8546317573932 61.45563431535299 L 2081.8506747076635 61.34783726362778 L 2081.8491024174887 61.24002771397536 L 2081.8499150440966 61.13221644726084 L 2081.853112506225 61.02441424452105 L 2081.858694484131 60.916631885886424 L 2081.8666604196205 60.808880149503025 L 2081.877009516107 60.70116981045468 L 2081.88974073869 60.59351163968555 L 2081.904852814257 60.48591640292299 L 2081.922344231614 60.378394859601016 L 2081.9422132416325 60.27095776178435 L 2081.9644578574294 60.163615853093255 L 2081.9890758545607 60.05637986762915 L 2082.016064771248 59.949260528901206 L 2082.045421908621 59.84226854875404 L 2082.077144330992 59.7354146262965 L 2082.1112288661434 59.62870944683179 L 2082.1476721056515 59.52216368078894 L 2082.1864704052223 59.41578798265577 L 2082.2276198850577 59.30959298991343 L 2082.271116430245 59.203589321972714 L 2082.316955691165 59.09778757911208 L 2082.3651330839302 58.992198341417634 L 2082.4156437908414 58.88683216772516 L 2082.4684827608703 58.78169959456423 L 2082.5236447101634 58.67681113510454 L 2082.581124122572 58.57217727810464 L 2082.6409152502024 58.46780848686303 L 2082.7030121139924 58.36371519817185 L 2082.7674085043072 58.25990782127324 L 2082.8340979815607 58.15639673681838 L 2082.9030738768615 58.053192295829454 L 2082.9743292926773 57.950304818664556 L 2083.047857103526 57.84774459398567 L 2083.1236499566876 57.745521877729786 L 2083.2017002729403 57.64364689208335 L 2083.282000247317 57.54212982446004 L 2083.3645418498872 57.44098082648201 L 2083.44931682656 57.340210012964775 L 2083.536316699908 57.2398274609057 L 2083.6255327700164 57.13984320847635 L 2083.7169561153523 57.040267254018644 L 2083.810577593658 56.94110955504505 L 2083.906387842863 56.84238002724283 L 2084.0043772820227 56.74408854348249 L 2084.104536112274 56.646244932830506 L 2084.206854317819 56.54885897956639 L 2084.311321666921 56.45194042220433 L 2084.4179277129324 56.35549895251929 L 2084.5266617953375 56.25954421457787 L 2084.6375130408187 56.16408580377391 L 2084.750470364344 56.06913326586893 L 2084.865522470275 55.974696096037604 L 2084.9826578534976 55.88078373791821 L 2085.1018648005697 55.7874055826683 L 2085.2231313908974 55.694570968025594 L 2085.3464454979216 55.60228917737418 L 2085.471794790335 55.51056943881623 L 2085.599166733313 55.41942092424918 L 2085.7285485897664 55.328852748448504 L 2085.8599274216185 55.23887396815633 L 2085.9932900910953 55.14949358117568 L 2086.128623262041 55.0607205254708 L 2086.2659134012506 54.97256367827326 L 2086.4051467798254 54.88503185519433 L 2086.5463094745432 54.79813380934336 L 2086.6893873692525 54.71187823045254 L 2086.8343661562826 54.62627374400786 L 2086.9812313378757 54.541328910386646 L 2087.1299682276363 54.45705222400146 L 2087.2805619519995 54.373452112450714 L 2087.4329974517177 54.290536935675895 L 2087.5872594833686 54.20831498512558 L 2087.7433326208775 54.12679448292632 L 2087.90120125706 54.0459835810604 L 2088.060849605185 53.965890360550645 L 2088.22226170055 53.88652283065238 L 2088.3854214020807 53.80788892805245 L 2088.550312393942 53.72999651607559 L 2088.716918187173 53.652853383898076 L 2088.885222121333 53.57646724576885 L 2089.0552073661684 53.50084574023808 L 2089.2268569232965 53.42599642939328 L 2089.4001536279047 53.35192679810317 L 2089.5750801504673 53.278644253269164 L 2089.7516189984776 53.20615612308466 L 2089.929752518198 53.13446965630228 L 2090.1094628964242 53.06359202150896 L 2090.290732162269 52.99353030640911 L 2090.473542188957 52.924291517115876 L 2090.657874695637 52.85588257745046 L 2090.8437112492124 52.78831032824984 L 2091.0310332661834 52.72158152668263 L 2091.2198220145033 52.65570284557336 L 2091.410058615455 52.590680872735255 L 2091.601724045537 52.52652211031142 L 2091.794799138366 52.463232974124615 L 2091.989264586594 52.40081979303573 L 2092.1851009438374 52.33928880831086 L 2092.3822886266244 52.278646172997206 L 2092.5808079163503 52.21889795130775 L 2092.7806389612524 52.160050118014894 L 2092.9817617783924 52.1021085578529 L 2093.184156255656 52.045079064929524 L 2093.3878021537644 51.98896734214652 L 2093.592679108297 51.933779000629414 L 2093.79876663173 51.87951955916637 L 2094.0060441154815 51.826194443656306 L 2094.214490831977 51.77380898656634 L 2094.4240859367183 51.72236842639853 L 2094.634808470369 51.67187790716602 L 2094.846637360852 51.622342477878675 L 2095.059551425455 51.57376709203812 L 2095.273529372948 51.526156607142475 L 2095.488549805715 51.47951578420055 L 2095.7045912218923 51.43384928725578 L 2095.921632017518 51.38916168291979 L 2096.1396504886934 51.34545743991578 L 2096.358624833753 51.302740928631636 L 2096.578533155445 51.261016420682886 L 2096.7993534631196 51.220288088485546 L 2097.0210636749316 51.18056000483891 L 2097.2436416200435 51.14183614251822 L 2097.467065040846 51.10412037387746 L 2097.6913115951847 51.06741647046204 L 2097.9163588585893 51.03172810263173 L 2098.142184326522 50.99705883919358 L 2098.3687654166242 50.96341214704502 L 2098.5960794709754 50.930791390827245 L 2098.8241037583593 50.899199832588685 L 2099.052815476538 50.86864063145883 L 2099.28219175453 50.83911684333235 L 2099.5122096548976 50.81063142056343 L 2099.7428461760437 50.78318721167063 L 2099.974078254508 50.75678696105195 L 2100.2058827672754 50.731433308710464 L 2100.438236534088 50.70712878999027 L 2100.671116319762 50.683875835323 L 2100.9044988365135 50.66167676998473 L 2101.1383607462853 50.6405338138635 L 2101.3726786630814 50.6204490812373 L 2101.607429155305 50.60142458056266 L 2101.8425887481026 50.583462214273794 L 2102.0781339257105 50.566563778592354 L 2102.3140411338086 50.55073096334783 L 2102.550286781871 50.53596535180856 L 2102.786847245531 50.52226842052339 L 2103.0236988689385 50.50964153917403 L 2103.2608179671292 50.49808597043808 L 2103.4981808283906 50.48760286986282 L 2103.7357637166347 50.47819328574954 L 2103.97354287377 50.46985815904882 L 2104.211494522079 50.462598323266384 L 2104.449594866596 50.456414504379765 L 2104.6878200974843 50.45130732076569 L 2104.926146392419 50.44727728313828 L 2105.16454991897 50.444324794497916 L 2105.403006836983 50.44245015009101 L 2105.641493300965 50.44165353738045 L 2105.879985462468 50.44193503602685 L 2106.1184594724746 50.443294617880554 L 2106.3568914837833 50.445732146984525 L 2106.5952576533905 50.44924737958788 L 2106.8335341448787 50.45383996417029 L 2107.0716971307975 50.459509441477124 L 2107.3097227950457 50.46625524456538 L 2107.5475873352566 50.474076698860365 L 2107.785266965173 50.48297302222316 L 2108.022737917031 50.49294332502887 L 2108.259976443933 50.50398661025549 L 2108.496958822224 50.51610177358371 L 2108.7336613538637 50.52928760350731 L 2108.970060368796 50.54354278145426 L 2109.2061322273166 50.55886588191867 L 2109.441853322436 50.575255372603245 L 2109.6772000822416 50.592709614572584 L 2109.912148972254 50.61122686241703 L 2110.1466764977786 50.630805264427224 L 2110.380759206259 50.651442862779284 L 2110.6143736896197 50.67313759373059 L 2110.847496586607 50.695887287826096 L 2111.0801045851254 50.71968967011537 L 2111.312174424568 50.74454236038002 L 2111.5436828981456 50.77044287337172 L 2111.7746068552033 50.797388619060754 L 2112.004923203537 50.825376902895016 L 2112.2346089117054 50.85440492606945 L 2112.4636410113276 50.88446978580591 L 2112.691996599385 50.9155684756435 L 2112.9196528405096 50.947697885739125 L 2113.1465869692665 50.980854803178566 L 2113.372776292432 51.01503591229771 L 2113.5981981912623 51.05023779501413 L 2113.822830123755 51.08645693116888 L 2114.0466496269046 51.12368969887854 L 2114.2696343189473 51.16193237489736 L 2114.4917619015996 51.201181134989596 L 2114.713010162288 51.241432054311964 L 2114.9333569763708 51.28268110780607 L 2115.152780309351 51.32492417060092 L 2115.3712582190774 51.368157018425464 L 2115.588768857941 51.41237532803093 L 2115.80529047506 51.45757467762322 L 2116.0208014184523 51.503750547305025 L 2116.2352801372035 51.55089831952786 L 2116.448705183621 51.5990132795538 L 2116.6610552153766 51.64809061592693 L 2116.872308997645 51.69812542095451 L 2117.0824454052245 51.749112691197745 L 2117.2914434246486 51.801047327972086 L 2117.4992821562896 51.85392413785714 L 2117.705940816448 51.90773783321599 L 2117.91139873943 51.962483032723924 L 2118.1156353796137 52.01815426190663 L 2118.3186303135058 52.07474595368758 L 2118.5203632417824 52.132252448944755 L 2118.7208139913187 52.190667997076545 L 2118.9199625172064 52.24998675657682 L 2119.117788904759 52.310202795619055 L 2119.3142733715026 52.371310092649544 L 2119.5093962691544 52.43330253698949 L 2119.703138085587 52.49617392944612 L 2119.8954794467804 52.559917982932596 L 2120.0864011187587 52.62452832309667 L 2120.275884009514 52.68999848895818 L 2120.463909170915 52.7563219335551 L 2120.650457800602 52.823492024598224 L 2120.8355112438676 52.89150204513444 L 2121.019050995522 52.960345194218355 L 2121.2010587017426 53.03001458759244 L 2121.381516161911 53.10050325837541 L 2121.5604053304305 53.171804157758935 L 2121.7377083185343 53.243910155712484 L 2121.9134073960713 53.31681404169635 L 2122.0874849932793 53.39050852538269 L 2122.2599237025447 53.46498623738456 L 2122.43070628014 53.5402397299928 L 2122.599815647949 53.61626147792087 L 2122.767234895177 53.69304387905734 L 2122.9329472800378 53.770579255226075 L 2123.0969362314313 53.848859852954064 L 2123.259185350599 53.92787784424677 L 2123.419678412765 54.00762532737092 L 2123.5783993687555 54.08809432764465 L 2123.735332346608 54.16927679823499 L 2123.8904616531554 54.251164620962534 L 2124.0437717755963 54.33374960711325 L 2124.195247383046 54.41702349825734 L 2124.34487332807 54.500977967075094 L 2124.492634648199 54.58560461818958 L 2124.6385165674237 54.670894989006214 L 2124.7825044976735 54.75684055055899 L 2124.9245840402755 54.84343270836337 L 2125.064740987394 54.93066280327574 L 2125.2029613234517 55.0185221123593 L 2125.339231226529 55.107001849756344 L 2125.47353706975 55.196093167566886 L 2125.6058654226413 55.28578715673337 L 2125.736203052479 55.37607484793163 L 2125.8645369256087 55.46694721246779 L 2125.990854208749 55.55839516318112 L 2126.115142270278 55.65040955535275 L 2126.237388681492 55.742981187620146 L 2126.357581217853 55.83610080289723 L 2126.4757078602065 55.92975908930006 L 2126.5917567959873 56.02394668107806 L 2126.705716420398 56.11865415955053 L 2126.8175753375717 56.213872054048544 L 2126.9273223617097 56.30959084286201 L 2127.0349465182007 56.405800954191804 L 2127.1404370447194 56.50249276710697 L 2127.2437833923004 56.5996566125068 L 2127.3449752263955 56.69728277408771 L 2127.444002427905 56.79536148931491 L 2127.540855094192 56.89388295039859 L 2127.6355235400706 56.99283730527477 L 2127.7279982987743 57.09221465859041 L 2127.8182701229052 57.19200507269298 L 2127.9063299853556 57.29219856862425 L 2127.9921690802125 57.39278512711811 L 2128.0757788236388 57.49375468960253 L 2128.1571508547286 57.59509715920541 L 2128.2362770363475 57.69680240176424 L 2128.313149455943 57.79886024683951 L 2128.387760426337 57.90126048873177 L 2128.460102486495 58.003992887502164 L 2128.530168402271 58.10704716999642 L 2128.597951167132 58.21041303087217 L 2128.6634440028583 58.31408013362946 L 2128.7266403602202 58.41803811164441 L 2128.787533919635 58.52227656920584 L 2128.846118591797 58.62678508255487 L 2128.902388518289 58.731553200927245 L 2128.9563380721643 58.83657044759845 L 2129.0079618585123 58.94182632093131 L 2129.057254714998 59.04731029542622 L 2129.1042117123766 59.153011822773635 L 2129.1488281549873 59.25892033290889 L 2129.1910995812236 59.36502523506925 L 2129.2310217639774 59.471315918852895 L 2129.268590711064 59.57778175528004 L 2129.30380266562 59.684412097855756 L 2129.3366541064793 59.79119628363465 L 2129.3671417485252 59.89812363428712 L 2129.395262543019 60.005183457167206 L 2129.4210136779043 60.11236504638185 L 2129.4443925780897 60.21965768386144 L 2129.465396905704 60.327050640431644 L 2129.4840245603323 60.43453317688629 L 2129.5002736792244 60.5420945450613 L 2129.514142637482 60.6497239889095 L 2129.5256300482215 60.757410745576195 L 2129.5347347627107 60.86514404647545 L 2129.541455870486 60.972913118366954 L 2129.545792699442 61.08070718443333 L 2129.5477448158995 61.188515465357796 M 2129.5478658059556 95.52678387991818 L 2129.5466733460516 95.6345944248348 L 2129.5430960855856 95.74239418878678 L 2129.5371343822803 95.85017239188754 L 2129.528788832301 95.95791825640659 L 2129.5180602701957 96.06562100784727 L 2129.504949768812 96.1732698760242 L 2129.489458639189 96.28085409614023 L 2129.471588430426 96.38836290986303 L 2129.45134092953 96.49578556640084 L 2129.428718161234 96.60311132357748 L 2129.403722387796 96.7103294489067 L 2129.3763561087717 96.8174292206653 L 2129.346622060767 96.92439992896537 L 2129.314523217162 97.0312308768252 L 2129.2800627878137 97.13791138123905 L 2129.243244218737 97.24443077424536 L 2129.2040711917575 97.35077840399362 L 2129.162547624146 97.45694363580944 L 2129.118677668224 97.56291585325815 L 2129.0724657109504 97.66868445920629 L 2129.023916373483 97.77423887688141 L 2128.973034510715 97.8795685509297 L 2128.9198252107903 97.98466294847155 L 2128.8642937945942 98.08951156015478 L 2128.806445815222 98.19410390120557 L 2128.7462870574236 98.29842951247699 L 2128.683823537025 98.40247796149485 L 2128.619061500326 98.50623884350097 L 2128.552007423476 98.60970178249359 L 2128.482668011827 98.71285643226504 L 2128.4110501992623 98.81569247743631 L 2128.3371611475036 98.91819963448859 L 2128.261008245395 99.02036765279156 L 2128.182599108162 99.12218631562857 L 2128.1019415766536 99.22364544121817 L 2128.0190437165566 99.32473488373233 L 2127.9339138175865 99.42544453431107 L 2127.846560392663 99.52576432207324 L 2127.756992177056 99.62568421512367 L 2127.6652181275117 99.72519422155631 L 2127.571247421359 99.82428439045346 L 2127.475089455591 99.92294481288079 L 2127.376753845923 100.02116562287829 L 2127.276250425834 100.11893699844678 L 2127.1735892455827 100.2162491625302 L 2127.068780571202 100.31309238399325 L 2126.961834883471 100.40945697859446 L 2126.8527628768697 100.50533330995468 L 2126.7415754585086 100.60071179052068 L 2126.628283747036 100.69558288252388 L 2126.512899071529 100.78993709893413 L 2126.395432970359 100.88376500440843 L 2126.275897190038 100.97705721623441 L 2126.154303684045 101.06980440526866 L 2126.0306646116283 101.16199729686952 L 2125.9049923365933 101.25362667182469 L 2125.7772994260617 101.34468336727302 L 2125.6475986492187 101.43515827762084 L 2125.515902976034 101.52504235545253 L 2125.3822255759646 101.61432661243519 L 2125.2465798166395 101.70300212021755 L 2125.1089792625216 101.7910600113227 L 2124.969437673552 101.87849148003492 L 2124.8279690037725 101.9652877832802 L 2124.6845873999328 102.05144024150056 L 2124.5393072000734 102.13694023952193 L 2124.3921429320935 102.22177922741581 L 2124.2431093122973 102.30594872135407 L 2124.0922212439227 102.38944030445748 L 2123.93949381565 102.47224562763729 L 2123.784942300096 102.5543564104302 L 2123.6285821522824 102.63576444182635 L 2123.4704290080945 102.71646158109044 L 2123.310498682714 102.79643975857579 L 2123.148807169041 102.8756909765313 L 2122.9853706360914 102.95420730990122 L 2122.820205427383 103.03198090711763 L 2122.6533280592985 103.10900399088564 L 2122.484755219436 103.18526885896105 L 2122.314503764939 103.2607678849206 L 2122.142590720811 103.33549351892461 L 2121.969033278213 103.40943828847196 L 2121.7938487927445 103.48259479914732 L 2121.6170547827087 103.55495573536056 L 2121.4386689273583 103.6265138610784 L 2121.2587090651314 103.69726202054787 L 2121.077193191863 103.76719313901197 L 2120.89413945899 103.83630022341715 L 2120.709566171733 103.90457636311257 L 2120.5234917872667 103.97201473054113 L 2120.335934912875 104.03860858192229 L 2120.1469143040886 104.10435125792642 L 2119.9564488628102 104.1692361843407 L 2119.7645576354266 104.23325687272656 L 2119.5712598109 104.29640692106851 L 2119.3765747188513 104.35868001441433 L 2119.180521827628 104.4200699255066 L 2118.983120742356 104.48057051540535 L 2118.784391202979 104.54017573410202 L 2118.5843530822854 104.5988796211244 L 2118.3830263839204 104.65667630613272 L 2118.180431240386 104.71356000950664 L 2117.976587911028 104.7695250429232 L 2117.77151678001 104.82456580992574 L 2117.5652383542733 104.87867680648341 L 2117.357773261489 104.93185262154162 L 2117.1491422479935 104.98408793756322 L 2116.939366176714 105.0353775310601 L 2116.728466025083 105.08571627311568 L 2116.51646288294 105.13509912989768 L 2116.303377950422 105.1835211631616 L 2116.089232535846 105.23097753074444 L 2115.8740480535735 105.27746348704899 L 2115.6578460218743 105.32297438351839 L 2115.440648060771 105.36750566910086 L 2115.222475889879 105.41105289070501 L 2115.0033513262333 105.45361169364494 L 2114.783296282108 105.49517782207583 L 2114.562332762824 105.53574711941947 L 2114.340482864549 105.57531552877992 L 2114.117768772088 105.61387909334925 L 2113.8942127566647 105.65143395680312 L 2113.6698371736943 105.68797636368647 L 2113.4446644605478 105.72350265978909 L 2113.2187171343094 105.75800929251095 L 2112.9920177895233 105.79149281121755 L 2112.7645890959348 105.82394986758491 L 2112.536453796224 105.85537721593445 L 2112.307634703731 105.88577171355752 L 2112.0781547001734 105.9151303210297 L 2111.8480367333614 105.94345010251467 L 2111.617303814899 105.97072822605791 L 2111.3859790178867 105.99696196386981 L 2111.1540854746113 106.02214869259844 L 2110.921646374233 106.04628589359189 L 2110.688684960469 106.0693711531502 L 2110.455224529266 106.09140216276666 L 2110.2212884264727 106.11237671935864 L 2109.986900045505 106.13229272548797 L 2109.752082825005 106.15114818957065 L 2109.516860246499 106.16894122607596 L 2109.2812558320497 106.1856700557151 L 2109.0452931419013 106.20133300561903 L 2108.8089957721268 106.21592850950582 L 2108.5723873522657 106.22945510783724 L 2108.335491542963 106.24191144796474 L 2108.0983320336027 106.25329628426466 L 2107.8609325399375 106.2636084782629 L 2107.6233168017193 106.2728469987486 L 2107.3855085803234 106.28101092187747 L 2107.147531656374 106.28809943126396 L 2106.909409827366 106.29411181806304 L 2106.671166905283 106.29904748104106 L 2106.432826714218 106.30290592663582 L 2106.1944130879933 106.30568676900597 L 2105.955949867772 106.30738973006962 L 2105.7174608996766 106.30801463953205 L 2105.478970032406 106.30756143490284 L 2105.240501114848 106.3060301615021 L 2105.002077993696 106.30342097245587 L 2104.7637245110627 106.29973412868088 L 2104.5254645020987 106.29496999885845 L 2104.2873217926053 106.28912905939758 L 2104.0493201966556 106.28221189438736 L 2103.811483514211 106.27421919553852 L 2103.573835528741 106.26515176211427 L 2103.3364000048464 106.25501050085043 L 2103.099200685882 106.24379642586464 L 2102.8622612915815 106.23151065855508 L 2102.625605515687 106.21815442748823 L 2102.3892570235794 106.20372906827606 L 2102.15323944991 106.1882360234425 L 2101.9175763962407 106.17167684227908 L 2101.6822914286795 106.15405318069014 L 2101.4474080755276 106.13536680102716 L 2101.212949824924 106.11561957191253 L 2100.9789401224994 106.09481346805269 L 2100.745402369028 106.0729505700407 L 2100.512359918091 106.05003306414814 L 2100.2798360737393 106.0260632421065 L 2100.0478540881636 106.00104350087803 L 2099.816437159369 105.97497634241597 L 2099.5856084288553 105.94786437341445 L 2099.3553909793036 105.9197103050478 L 2099.125807832267 105.89051695269937 L 2098.8968819458687 105.86028723568009 L 2098.668636212507 105.82902417693644 L 2098.4410934565644 105.79673090274827 L 2098.214276432127 105.76341064241608 L 2097.9882078207083 105.72906672793813 L 2097.7629102289816 105.69370259367726 L 2097.5384061865175 105.6573217760174 L 2097.3147181435334 105.61992791301003 L 2097.0918684686476 105.58152474401028 L 2096.8698794466413 105.54211610930304 L 2096.6487732762325 105.50170594971894 L 2096.428572067853 105.46029830624026 L 2096.2092978414407 105.41789731959686 L 2095.9909725242355 105.37450722985206 L 2095.7736179485873 105.33013237597868 L 2095.557255849772 105.28477719542511 L 2095.34190786382 105.23844622367163 L 2095.1275955253495 105.1911440937768 L 2094.9143402654167 105.14287553591419 L 2094.702163409369 105.09364537689936 L 2094.4910861747157 105.0434585397072 L 2094.2811296690043 104.99232004297959 L 2094.0723148877105 104.9402350005236 L 2093.8646627121384 104.88720862080007 L 2093.658193907332 104.83324620640276 L 2093.45292912 104.77835315352817 L 2093.248888876451 104.72253495143585 L 2093.046093580538 104.66579718189945 L 2092.8445635116223 104.60814551864868 L 2092.6443188225426 104.54958572680184 L 2092.4453795376007 104.49012366228926 L 2092.24776555056 104.42976527126788 L 2092.051496622654 104.36851658952648 L 2091.8565923806123 104.30638374188221 L 2091.6630723146964 104.24337294156805 L 2091.470955776752 104.17949048961154 L 2091.280261978272 104.11474277420461 L 2091.0910099884777 104.04913627006486 L 2090.903218732411 103.98267753778805 L 2090.71690698904 103.91537322319199 L 2090.532093389385 103.84723005665208 L 2090.3487964146507 103.77825485242818 L 2090.167034394383 103.70845450798322 L 2089.9868255046313 103.63783600329349 L 2089.808187766135 103.56640640015061 L 2089.631139042519 103.49417284145538 L 2089.4556970385083 103.42114255050346 L 2089.2818792981566 103.3473228302631 L 2089.109703203094 103.27272106264479 L 2088.9391859707853 103.19734470776314 L 2088.7703446528126 103.1212013031908 L 2088.603196133167 103.04429846320481 L 2088.4377571265604 102.96664387802507 L 2088.2740441767564 102.88824531304537 L 2088.112073654913 102.8091106080569 L 2087.951861757948 102.72924767646418 L 2087.793424506917 102.64866450449387 L 2087.636777745413 102.56736915039596 L 2087.4819371379817 102.48536974363815 L 2087.3289181685554 102.40267448409276 L 2087.177736138903 102.31929164121684 L 2087.0284061671023 102.2352295532252 L 2086.8809431860245 102.15049662625658 L 2086.735361941846 102.06510133353308 L 2086.59167699257 101.97905221451278 L 2086.4499027065704 101.89235787403591 L 2086.310053261159 101.80502698146424 L 2086.172142641163 101.71706826981428 L 2086.0361846375304 101.62849053488388 L 2085.902192845947 101.53930263437272 L 2085.7701806654813 101.44951348699652 L 2085.640161297241 101.35913207159521 L 2085.5121477430544 101.26816742623502 L 2085.3861528041707 101.17662864730465 L 2085.2621890799783 101.08452488860574 L 2085.1402689667466 100.9918653604374 L 2085.020404656385 100.89865932867522 L 2084.9026081352254 100.80491611384473 L 2084.786891182821 100.71064509018925 L 2084.6732653707704 100.61585568473262 L 2084.5617420615613 100.5205573763364 L 2084.4523324074303 100.424759694752 L 2084.345047349253 100.32847221966773 L 2084.2398976154445 100.2317045797509 L 2084.1368937208913 100.13446645168483 L 2084.0360459658973 100.03676755920131 L 2083.937364435153 99.93861767210817 L 2083.8408589967303 99.84002660531232 L 2083.7465393010916 99.7410042178383 L 2083.6544147801287 99.64156041184232 L 2083.5644946462166 99.54170513162211 L 2083.4767878912935 99.4414483626225 L 2083.3913032859623 99.34080013043682 L 2083.308049378612 99.23977049980442 L 2083.227034494564 99.13836957360418 L 2083.1482667352393 99.03660749184422 L 2083.0717539773477 98.9344944306479 L 2082.9975038721022 98.83204060123627 L 2082.9255238444507 98.72925624890688 L 2082.855821092336 98.6261516520093 L 2082.7884025859753 98.52273712091731 L 2082.7232750671633 98.41902299699785 L 2082.6604450485975 98.31501965157686 L 2082.5999188132273 98.21073748490224 L 2082.541702413626 98.10618692510373 L 2082.4858016713847 98.0013784271502 L 2082.432222176531 97.89632247180411 L 2082.3809692869704 97.79102956457344 L 2082.3320481279484 97.68551023466115 L 2082.2854635915405 97.57977503391233 L 2082.241220336162 97.47383453575894 L 2082.1993227861003 97.3676993341625 L 2082.1597751310765 97.2613800425547 L 2082.122581325823 97.15488729277617 L 2082.087745089689 97.04823173401307 L 2082.0552699062696 96.94142403173245 L 2082.0251590230555 96.8344748666155 L 2081.99741545111 96.72739493348962 L 2081.972041964768 96.6201949402589 L 2081.9490411013558 96.51288560683331 L 2081.9284151609413 96.40547766405678 L 2081.910166206101 96.29798185263407 L 2081.894296061716 96.19040892205675 L 2081.8808063147862 96.08276962952824 L 2081.869698314276 95.9750747388881 L 2081.8609731709757 95.86733501953563 L 2081.8546317573932 95.75956124535298 L 2081.8506747076635 95.65176419362778 L 2081.8491024174887 95.54395464397535" stroke-miterlimit="10" stroke-width="2.7769845610000004" stroke-dasharray=""/></g><g><g/><text fill="black" stroke="none" font-family="sans-serif" font-size="11pt" font-style="normal" font-weight="normal" text-decoration="normal" x="2095.5159357237953" y="123.83569119881818" text-anchor="start" dominant-baseline="alphabetic" xml:space="preserve">DB</text></g></g><g><g><text fill="black" stroke="none" font-family="sans-serif" font-size="16pt" font-style="normal" font-weight="normal" text-decoration="normal" x="1007.3891906738281" y="24.651306798181814" text-anchor="start" dominant-baseline="alphabetic" xml:space="preserve">Booking a ride flow</text></g><g><rect fill="white" stroke="none" x="92.83840542166668" y="161.40665878881816" width="62.760256424570315" height="21.23576429"/><rect fill="white" stroke="none" x="92.83840542166668" y="161.40665878881816" width="74.97212471070313" height="21.23576429"/><rect fill="white" stroke="none" x="92.83840542166668" y="177.74186208881815" width="41.550539627695315" height="21.23576429"/><rect fill="white" stroke="none" x="92.83840542166668" y="177.74186208881815" width="177.65637458863281" height="21.23576429"/><rect fill="white" stroke="none" x="92.83840542166668" y="194.07706538881814" width="268.1431147009375" height="21.23576429"/><text fill="black" stroke="none" font-family="sans-serif" font-size="11pt" font-style="normal" font-weight="bold" text-decoration="normal" x="95.28868591666668" y="176.10834175881814" text-anchor="start" dominant-baseline="alphabetic" xml:space="preserve">Headers</text><text fill="black" stroke="none" font-family="sans-serif" font-size="11pt" font-style="normal" font-weight="normal" text-decoration="normal" x="153.148381351237" y="176.10834175881814" text-anchor="start" dominant-baseline="alphabetic" xml:space="preserve">: Jwt token</text><text fill="black" stroke="none" font-family="sans-serif" font-size="11pt" font-style="normal" font-weight="bold" text-decoration="normal" x="95.28868591666668" y="192.44354505881813" text-anchor="start" dominant-baseline="alphabetic" xml:space="preserve">Body</text><text fill="black" stroke="none" font-family="sans-serif" font-size="11pt" font-style="normal" font-weight="normal" text-decoration="normal" x="131.938664554362" y="192.44354505881813" text-anchor="start" dominant-baseline="alphabetic" xml:space="preserve">: user_id, current_location,</text><text fill="black" stroke="none" font-family="sans-serif" font-size="11pt" font-style="normal" font-weight="normal" text-decoration="normal" x="95.28868591666668" y="208.77874835881812" text-anchor="start" dominant-baseline="alphabetic" xml:space="preserve">destination_location, transportation_type</text></g><g><path fill="none" stroke="black" paint-order="fill stroke markers" d=" M 73.50841485 215.31282967881816 L 366.86217805181514 215.31282967881816" stroke-miterlimit="10" stroke-width="1.3612669416666667" stroke-dasharray=""/><g transform="translate(380.3114954354818,215.31282967881816) translate(-380.3114954354818,-215.31282967881816)"><path fill="black" stroke="none" paint-order="stroke fill markers" d=" M 366.6988260188151 208.50649497048482 L 380.3114954354818 215.31282967881816 L 366.6988260188151 222.1191643871515 Z"/></g></g><g><rect fill="white" stroke="none" x="399.6414860071484" y="283.92068353881814" width="307.2482782751562" height="21.23576429"/><rect fill="white" stroke="none" x="399.6414860071484" y="300.2558868388181" width="130.40515388550781" height="21.23576429"/><text fill="black" stroke="none" font-family="sans-serif" font-size="11pt" font-style="normal" font-weight="normal" text-decoration="normal" x="402.0917665021484" y="298.6223665088181" text-anchor="start" dominant-baseline="alphabetic" xml:space="preserve">user_id, current_location, destination_location,</text><text fill="black" stroke="none" font-family="sans-serif" font-size="11pt" font-style="normal" font-weight="normal" text-decoration="normal" x="402.0917665021484" y="314.9575698088181" text-anchor="start" dominant-baseline="alphabetic" xml:space="preserve">transportation_type</text></g><g><path fill="none" stroke="black" paint-order="fill stroke markers" d=" M 380.3114954354818 321.49165112881815 L 712.7704527290938 321.49165112881815" stroke-miterlimit="10" stroke-width="1.3612669416666667" stroke-dasharray=""/><g transform="translate(726.2197701127604,321.49165112881815) translate(-726.2197701127604,-321.49165112881815)"><path fill="black" stroke="none" paint-order="stroke fill markers" d=" M 712.6071006960938 314.6853164204848 L 726.2197701127604 321.49165112881815 L 712.6071006960938 328.2979858371515 Z"/></g></g><g><rect fill="white" stroke="none" x="830.6929186434114" y="345.99445607881813" width="132.83178962769531" height="21.23576429"/><text fill="black" stroke="none" font-family="sans-serif" font-size="11pt" font-style="normal" font-weight="normal" text-decoration="normal" x="833.1431991384114" y="360.6961390488181" text-anchor="start" dominant-baseline="alphabetic" xml:space="preserve">Get user by user_id</text></g><g><path fill="none" stroke="black" paint-order="fill stroke markers" d=" M 726.2197701127604 367.23022036881815 L 1054.548539418091 367.23022036881815" stroke-miterlimit="10" stroke-width="1.3612669416666667" stroke-dasharray=""/><g transform="translate(1067.9978568017577,367.23022036881815) translate(-1067.9978568017577,-367.23022036881815)"><path fill="black" stroke="none" paint-order="stroke fill markers" d=" M 1054.385187385091 360.4238856604848 L 1067.9978568017577 367.23022036881815 L 1054.385187385091 374.0365550771515 Z"/></g></g><g><rect fill="white" stroke="none" x="1423.0521869042511" y="391.73302531881814" width="327.5919062048437" height="21.23576429"/><rect fill="white" stroke="none" x="1423.0521869042511" y="408.0682286188181" width="92.08734382691406" height="21.23576429"/><text fill="black" stroke="none" font-family="sans-serif" font-size="11pt" font-style="normal" font-weight="normal" text-decoration="normal" x="1425.5024673992511" y="406.4347082888181" text-anchor="start" dominant-baseline="alphabetic" xml:space="preserve">Get user with id = user_id and status = FREE and</text><text fill="black" stroke="none" font-family="sans-serif" font-size="11pt" font-style="normal" font-weight="normal" text-decoration="normal" x="1425.5024673992511" y="422.7699115888181" text-anchor="start" dominant-baseline="alphabetic" xml:space="preserve">lock that user</text></g><g><path fill="none" stroke="black" paint-order="fill stroke markers" d=" M 1067.9978568017577 429.30399290881815 L 2092.2491516042887 429.30399290881815" stroke-miterlimit="10" stroke-width="1.3612669416666667" stroke-dasharray=""/><g transform="translate(2105.6984689879555,429.30399290881815) translate(-2105.6984689879555,-429.30399290881815)"><path fill="black" stroke="none" paint-order="stroke fill markers" d=" M 2092.085799571289 422.4976582004848 L 2105.6984689879555 429.30399290881815 L 2092.085799571289 436.1103276171515 Z"/></g></g><g><rect fill="white" stroke="none" x="1087.3278473734244" y="453.80679785881813" width="187.81392158570313" height="21.23576429"/><text fill="black" stroke="none" font-family="sans-serif" font-size="11pt" font-style="normal" font-weight="normal" text-decoration="normal" x="1089.7781278684245" y="468.5084808288181" text-anchor="start" dominant-baseline="alphabetic" xml:space="preserve">Set user status = BOOKING</text></g><g><path fill="none" stroke="black" paint-order="fill stroke markers" d=" M 1067.9978568017577 475.0425621488181 L 1133.3386700017577 475.0425621488181 L 1133.3386700017577 496.2783264388181 L 1081.4471741854245 496.2783264388181" stroke-miterlimit="10" stroke-width="1.3612669416666667" stroke-dasharray=""/><g transform="translate(1067.9978568017577,496.2783264388181) translate(-1067.9978568017577,-496.2783264388181)"><path fill="black" stroke="none" paint-order="stroke fill markers" d=" M 1081.6105262184244 489.4719917304848 L 1067.9978568017577 496.2783264388181 L 1081.6105262184244 503.08466114715145 Z"/></g></g><g><rect fill="white" stroke="none" x="1544.0614718773957" y="520.781131388818" width="85.57338203492188" height="21.23576429"/><text fill="black" stroke="none" font-family="sans-serif" font-size="11pt" font-style="normal" font-weight="normal" text-decoration="normal" x="1546.5117523723957" y="535.482814358818" text-anchor="start" dominant-baseline="alphabetic" xml:space="preserve">release user</text></g><g><path fill="none" stroke="black" paint-order="fill stroke markers" d=" M 1067.9978568017577 542.0168956788181 L 2092.2491516042887 542.0168956788181" stroke-miterlimit="10" stroke-width="1.3612669416666667" stroke-dasharray=""/><g transform="translate(2105.6984689879555,542.0168956788181) translate(-2105.6984689879555,-542.0168956788181)"><path fill="black" stroke="none" paint-order="stroke fill markers" d=" M 2092.085799571289 535.2105609704847 L 2105.6984689879555 542.0168956788181 L 2092.085799571289 548.8232303871514 Z"/></g></g><g><rect fill="white" stroke="none" x="745.549760684427" y="566.519700628818" width="303.118090286875" height="21.23576429"/><text fill="black" stroke="none" font-family="sans-serif" font-size="11pt" font-style="normal" font-weight="normal" text-decoration="normal" x="748.0000411794271" y="581.221383598818" text-anchor="start" dominant-baseline="alphabetic" xml:space="preserve">User with id = user_id and status = BOOKING</text></g><g><path fill="none" stroke="black" paint-order="fill stroke markers" d=" M 1067.9978568017577 587.755464918818 L 739.6690874964271 587.755464918818" stroke-miterlimit="10" stroke-width="1.3612669416666667" stroke-dasharray=""/><g transform="translate(726.2197701127604,587.755464918818) translate(-726.2197701127604,-587.755464918818)"><path fill="black" stroke="none" paint-order="stroke fill markers" d=" M 739.8324395294271 580.9491302104847 L 726.2197701127604 587.755464918818 L 739.8324395294271 594.5617996271513 Z"/></g></g><g><rect fill="white" stroke="none" x="1121.9030319827182" y="656.3633187788181" width="211.8940149694922" height="21.23576429"/><rect fill="white" stroke="none" x="1121.9030319827182" y="672.6985220788181" width="288.51530708375" height="21.23576429"/><rect fill="white" stroke="none" x="1121.9030319827182" y="689.0337253788181" width="303.52601875367185" height="21.23576429"/><text fill="black" stroke="none" font-family="sans-serif" font-size="11pt" font-style="normal" font-weight="normal" text-decoration="normal" x="1124.3533124777182" y="671.0650017488181" text-anchor="start" dominant-baseline="alphabetic" xml:space="preserve">Send [user_id, current_location,</text><text fill="black" stroke="none" font-family="sans-serif" font-size="11pt" font-style="normal" font-weight="normal" text-decoration="normal" x="1124.3533124777182" y="687.4002050488181" text-anchor="start" dominant-baseline="alphabetic" xml:space="preserve">destination_location, transportation_type] to</text><text fill="black" stroke="none" font-family="sans-serif" font-size="11pt" font-style="normal" font-weight="normal" text-decoration="normal" x="1124.3533124777182" y="703.735408348818" text-anchor="start" dominant-baseline="alphabetic" xml:space="preserve">priority queue with priority = current_priority++</text></g><g><path fill="none" stroke="black" paint-order="fill stroke markers" d=" M 726.2197701127604 710.2694896688181 L 1807.6629952226808 710.2694896688181" stroke-miterlimit="10" stroke-width="1.3612669416666667" stroke-dasharray=""/><g transform="translate(1821.1123126063476,710.2694896688181) translate(-1821.1123126063476,-710.2694896688181)"><path fill="black" stroke="none" paint-order="stroke fill markers" d=" M 1807.499643189681 703.4631549604848 L 1821.1123126063476 710.2694896688181 L 1807.499643189681 717.0758243771514 Z"/></g></g><g><rect fill="white" stroke="none" x="1314.6486258212922" y="734.772294618818" width="472.6741510778906" height="21.23576429"/><text fill="black" stroke="none" font-family="sans-serif" font-size="11pt" font-style="normal" font-weight="normal" text-decoration="normal" x="1317.0989063162922" y="749.473977588818" text-anchor="start" dominant-baseline="alphabetic" xml:space="preserve">Get [user_id, current_location, destination_location, transportation_type]</text></g><g><path fill="none" stroke="black" paint-order="fill stroke markers" d=" M 1821.1123126063476 756.008058908818 L 1294.3084074977942 756.008058908818" stroke-miterlimit="10" stroke-width="1.3612669416666667" stroke-dasharray=""/><g transform="translate(1280.8590901141274,756.008058908818) translate(-1280.8590901141274,-756.008058908818)"><path fill="black" stroke="none" paint-order="stroke fill markers" d=" M 1294.471759530794 749.2017242004847 L 1280.8590901141274 756.008058908818 L 1294.471759530794 762.8143936171514 Z"/></g></g><g><rect fill="white" stroke="none" x="1534.1929399740102" y="780.5108638588181" width="241.61485542359375" height="21.23576429"/><rect fill="white" stroke="none" x="1534.1929399740102" y="796.8460671588181" width="286.4609247595312" height="21.23576429"/><rect fill="white" stroke="none" x="1534.1929399740102" y="813.1812704588181" width="318.1716791540625" height="21.23576429"/><rect fill="white" stroke="none" x="1534.1929399740102" y="829.516473758818" width="70.0830561071875" height="21.23576429"/><text fill="black" stroke="none" font-family="sans-serif" font-size="11pt" font-style="normal" font-weight="normal" text-decoration="normal" x="1536.6432204690102" y="795.2125468288181" text-anchor="start" dominant-baseline="alphabetic" xml:space="preserve">Get driver with transportation_type =</text><text fill="black" stroke="none" font-family="sans-serif" font-size="11pt" font-style="normal" font-weight="normal" text-decoration="normal" x="1536.6432204690102" y="811.547750128818" text-anchor="start" dominant-baseline="alphabetic" xml:space="preserve">transportation_type and status = FREE and</text><text fill="black" stroke="none" font-family="sans-serif" font-size="11pt" font-style="normal" font-weight="normal" text-decoration="normal" x="1536.6432204690102" y="827.882953428818" text-anchor="start" dominant-baseline="alphabetic" xml:space="preserve">dis(pos(driver), current_location) = MIN and lock</text><text fill="black" stroke="none" font-family="sans-serif" font-size="11pt" font-style="normal" font-weight="normal" text-decoration="normal" x="1536.6432204690102" y="844.218156728818" text-anchor="start" dominant-baseline="alphabetic" xml:space="preserve">that driver</text></g><g><path fill="none" stroke="black" paint-order="fill stroke markers" d=" M 1280.8590901141274 850.7522380488181 L 2092.2491516042887 850.7522380488181" stroke-miterlimit="10" stroke-width="1.3612669416666667" stroke-dasharray=""/><g transform="translate(2105.6984689879555,850.7522380488181) translate(-2105.6984689879555,-850.7522380488181)"><path fill="black" stroke="none" paint-order="stroke fill markers" d=" M 2092.085799571289 843.9459033404847 L 2105.6984689879555 850.7522380488181 L 2092.085799571289 857.5585727571514 Z"/></g></g><g><rect fill="white" stroke="none" x="1300.1890806857941" y="919.360091908818" width="215.52327217164063" height="21.23576429"/><text fill="black" stroke="none" font-family="sans-serif" font-size="11pt" font-style="normal" font-weight="normal" text-decoration="normal" x="1302.6393611807941" y="934.061774878818" text-anchor="start" dominant-baseline="alphabetic" xml:space="preserve">Update driver status = BOOKED</text></g><g><path fill="none" stroke="black" paint-order="fill stroke markers" d=" M 1280.8590901141274 940.5958561988181 L 1346.1999033141274 940.5958561988181 L 1346.1999033141274 961.8316204888181 L 1294.3084074977942 961.8316204888181" stroke-miterlimit="10" stroke-width="1.3612669416666667" stroke-dasharray=""/><g transform="translate(1280.8590901141274,961.8316204888181) translate(-1280.8590901141274,-961.8316204888181)"><path fill="black" stroke="none" paint-order="stroke fill markers" d=" M 1294.471759530794 955.0252857804848 L 1280.8590901141274 961.8316204888181 L 1294.471759530794 968.6379551971514 Z"/></g></g><g><rect fill="white" stroke="none" x="1477.6370978061555" y="986.334425438818" width="146.69720710816406" height="21.23576429"/><text fill="black" stroke="none" font-family="sans-serif" font-size="11pt" font-style="normal" font-weight="normal" text-decoration="normal" x="1480.0873783011555" y="1001.036108408818" text-anchor="start" dominant-baseline="alphabetic" xml:space="preserve">Return founded driver</text></g><g><path fill="none" stroke="black" paint-order="fill stroke markers" d=" M 1280.8590901141274 1007.570189728818 L 1807.6629952226808 1007.570189728818" stroke-miterlimit="10" stroke-width="1.3612669416666667" stroke-dasharray=""/><g transform="translate(1821.1123126063476,1007.570189728818) translate(-1821.1123126063476,-1007.570189728818)"><path fill="black" stroke="none" paint-order="stroke fill markers" d=" M 1807.499643189681 1000.7638550204847 L 1821.1123126063476 1007.570189728818 L 1807.499643189681 1014.3765244371514 Z"/></g></g><g><rect fill="white" stroke="none" x="1513.088048428714" y="1076.1780435888181" width="75.79530586304688" height="21.23576429"/><text fill="black" stroke="none" font-family="sans-serif" font-size="11pt" font-style="normal" font-weight="normal" text-decoration="normal" x="1515.538328923714" y="1090.8797265588182" text-anchor="start" dominant-baseline="alphabetic" xml:space="preserve">Return null</text></g><g><path fill="none" stroke="black" paint-order="fill stroke markers" d=" M 1280.8590901141274 1097.413807878818 L 1807.6629952226808 1097.413807878818" stroke-miterlimit="10" stroke-width="1.3612669416666667" stroke-dasharray=""/><g transform="translate(1821.1123126063476,1097.413807878818) translate(-1821.1123126063476,-1097.413807878818)"><path fill="black" stroke="none" paint-order="stroke fill markers" d=" M 1807.499643189681 1090.6074731704848 L 1821.1123126063476 1097.413807878818 L 1807.499643189681 1104.2201425871513 Z"/></g></g><g><rect fill="white" stroke="none" x="1218.6567246096713" y="1146.4194177788181" width="110.01863349976563" height="21.23576429"/><text fill="black" stroke="none" font-family="sans-serif" font-size="11pt" font-style="normal" font-weight="normal" text-decoration="normal" x="1221.1070051046713" y="1161.1211007488182" text-anchor="start" dominant-baseline="alphabetic" xml:space="preserve">Get found driver</text></g><g><path fill="none" stroke="black" paint-order="fill stroke markers" d=" M 1821.1123126063476 1167.655182068818 L 739.6690874964271 1167.655182068818" stroke-miterlimit="10" stroke-width="1.3612669416666667" stroke-dasharray=""/><g transform="translate(726.2197701127604,1167.655182068818) translate(-726.2197701127604,-1167.655182068818)"><path fill="black" stroke="none" paint-order="stroke fill markers" d=" M 739.8324395294271 1160.8488473604848 L 726.2197701127604 1167.655182068818 L 739.8324395294271 1174.4615167771512 Z"/></g></g><g><rect fill="white" stroke="none" x="745.5497606844272" y="1236.263035928818" width="206.99780525269531" height="21.23576429"/><text fill="black" stroke="none" font-family="sans-serif" font-size="11pt" font-style="normal" font-weight="normal" text-decoration="normal" x="748.0000411794272" y="1250.964718898818" text-anchor="start" dominant-baseline="alphabetic" xml:space="preserve">Set driver founded (break loop)</text></g><g><path fill="none" stroke="black" paint-order="fill stroke markers" d=" M 726.2197701127604 1257.4988002188181 L 791.5605833127604 1257.4988002188181 L 791.5605833127604 1278.734564508818 L 739.6690874964271 1278.734564508818" stroke-miterlimit="10" stroke-width="1.3612669416666667" stroke-dasharray=""/><g transform="translate(726.2197701127604,1278.734564508818) translate(-726.2197701127604,-1278.734564508818)"><path fill="black" stroke="none" paint-order="stroke fill markers" d=" M 739.8324395294271 1271.9282298004848 L 726.2197701127604 1278.734564508818 L 739.8324395294271 1285.5408992171513 Z"/></g></g><g><rect fill="white" stroke="none" x="866.1167973588085" y="1352.242979358818" width="530.5123163610938" height="21.23576429"/><text fill="black" stroke="none" font-family="sans-serif" font-size="11pt" font-style="normal" font-weight="normal" text-decoration="normal" x="868.5670778538085" y="1366.9446623288181" text-anchor="start" dominant-baseline="alphabetic" xml:space="preserve">Create new transaction [user_id, driver_id, current_location, destination_location]</text></g><g><path fill="none" stroke="black" paint-order="fill stroke markers" d=" M 726.2197701127604 1373.478743648818 L 1523.0768388410727 1373.478743648818" stroke-miterlimit="10" stroke-width="1.3612669416666667" stroke-dasharray=""/><g transform="translate(1536.5261562247395,1373.478743648818) translate(-1536.5261562247395,-1373.478743648818)"><path fill="black" stroke="none" paint-order="stroke fill markers" d=" M 1522.9134868080728 1366.6724089404847 L 1536.5261562247395 1373.478743648818 L 1522.9134868080728 1380.2850783571512 Z"/></g></g><g><rect fill="white" stroke="none" x="1555.8561467964062" y="1397.981548598818" width="530.5123163610938" height="21.23576429"/><text fill="black" stroke="none" font-family="sans-serif" font-size="11pt" font-style="normal" font-weight="normal" text-decoration="normal" x="1558.3064272914062" y="1412.6832315688182" text-anchor="start" dominant-baseline="alphabetic" xml:space="preserve">Create new transaction [user_id, driver_id, current_location, destination_location]</text></g><g><path fill="none" stroke="black" paint-order="fill stroke markers" d=" M 1536.5261562247395 1419.217312888818 L 2092.2491516042887 1419.217312888818" stroke-miterlimit="10" stroke-width="1.3612669416666667" stroke-dasharray=""/><g transform="translate(2105.6984689879555,1419.217312888818) translate(-2105.6984689879555,-1419.217312888818)"><path fill="black" stroke="none" paint-order="stroke fill markers" d=" M 2092.085799571289 1412.4109781804848 L 2105.6984689879555 1419.217312888818 L 2092.085799571289 1426.0236475971512 Z"/></g></g><g><rect fill="white" stroke="none" x="345.26638156645834" y="1443.7201178388182" width="109.19542182984375" height="21.23576429"/><text fill="black" stroke="none" font-family="sans-serif" font-size="11pt" font-style="normal" font-weight="normal" text-decoration="normal" x="347.71666206145835" y="1458.4218008088183" text-anchor="start" dominant-baseline="alphabetic" xml:space="preserve">Return driver_id</text></g><g><path fill="none" stroke="black" paint-order="fill stroke markers" d=" M 726.2197701127604 1464.955882128818 L 86.95773223366666 1464.955882128818" stroke-miterlimit="10" stroke-width="1.3612669416666667" stroke-dasharray=""/><g transform="translate(73.50841485,1464.955882128818) translate(-73.50841485,-1464.955882128818)"><path fill="black" stroke="none" paint-order="stroke fill markers" d=" M 87.12108426666666 1458.1495474204849 L 73.50841485 1464.955882128818 L 87.12108426666666 1471.7622168371513 Z"/></g></g><g><rect fill="white" stroke="none" x="173.11394863455732" y="1533.5637359888183" width="107.59201301636719" height="21.23576429"/><text fill="black" stroke="none" font-family="sans-serif" font-size="11pt" font-style="normal" font-weight="normal" text-decoration="normal" x="175.5642291295573" y="1548.2654189588184" text-anchor="start" dominant-baseline="alphabetic" xml:space="preserve">403: Forbidden </text></g><g><path fill="none" stroke="black" paint-order="fill stroke markers" d=" M 380.3114954354818 1554.7995002788182 L 86.95773223366666 1554.7995002788182" stroke-miterlimit="10" stroke-width="1.3612669416666667" stroke-dasharray=""/><g transform="translate(73.50841485,1554.7995002788182) translate(-73.50841485,-1554.7995002788182)"><path fill="black" stroke="none" paint-order="stroke fill markers" d=" M 87.12108426666666 1547.993165570485 L 73.50841485 1554.7995002788182 L 87.12108426666666 1561.6058349871514 Z"/></g></g><g><g/><path fill="none" stroke="black" paint-order="fill stroke markers" d=" M 16.335203299999996 239.81563462881815 L 2179.2068838379555 239.81563462881815 L 2179.2068838379555 1579.302305228818 L 16.335203299999996 1579.302305228818 L 16.335203299999996 239.81563462881815 Z" stroke-miterlimit="10" stroke-width="2.3336004714285714" stroke-dasharray=""/><path fill="white" stroke="black" paint-order="fill stroke markers" d=" M 16.335203299999996 239.81563462881815 L 16.335203299999996 259.41787858881816 L 62.69440689707031 259.41787858881816 L 72.49552887707031 249.61675660881815 L 72.49552887707031 239.81563462881815 L 16.335203299999996 239.81563462881815" stroke-miterlimit="10" stroke-width="2.3336004714285714" stroke-dasharray=""/><text fill="black" stroke="none" font-family="sans-serif" font-size="8.8pt" font-style="normal" font-weight="bold" text-decoration="normal" x="32.67040659999999" y="252.88379726881814" text-anchor="start" dominant-baseline="alphabetic" xml:space="preserve">alt</text><g><rect fill="white" stroke="none" x="86.38045168207032" y="241.12245089281814" width="77.02736152710938" height="16.988611432000003"/></g><text fill="black" stroke="none" font-family="sans-serif" font-size="8.8pt" font-style="normal" font-weight="bold" text-decoration="normal" x="88.83073217707032" y="252.88379726881814" text-anchor="start" dominant-baseline="alphabetic" xml:space="preserve">[Valid Token]</text><g><path fill="none" stroke="black" paint-order="fill stroke markers" d=" M 16.335203299999996 1489.4586870788182 L 2179.2068838379555 1489.4586870788182" stroke-miterlimit="10" stroke-width="2.3336004714285714" stroke-dasharray="4.083800825"/></g><g/><g><rect fill="white" stroke="none" x="86.38045168207032" y="1490.7655033428182" width="86.79854072632813" height="16.988611432000003"/></g><text fill="black" stroke="none" font-family="sans-serif" font-size="8.8pt" font-style="normal" font-weight="bold" text-decoration="normal" x="88.83073217707032" y="1502.526849718818" text-anchor="start" dominant-baseline="alphabetic" xml:space="preserve">[Invalid Token]</text></g><g><g/><path fill="none" stroke="black" paint-order="fill stroke markers" d=" M 652.7113552627604 612.258269868818 L 2162.8716805379554 612.258269868818 L 2162.8716805379554 1327.740174408818 L 652.7113552627604 1327.740174408818 L 652.7113552627604 612.258269868818 Z" stroke-miterlimit="10" stroke-width="2.3336004714285714" stroke-dasharray=""/><path fill="white" stroke="black" paint-order="fill stroke markers" d=" M 652.7113552627604 612.258269868818 L 652.7113552627604 631.8605138288181 L 710.1361563940104 631.8605138288181 L 719.9372783740104 622.059391848818 L 719.9372783740104 612.258269868818 L 652.7113552627604 612.258269868818" stroke-miterlimit="10" stroke-width="2.3336004714285714" stroke-dasharray=""/><text fill="black" stroke="none" font-family="sans-serif" font-size="8.8pt" font-style="normal" font-weight="bold" text-decoration="normal" x="669.0465585627604" y="625.326432508818" text-anchor="start" dominant-baseline="alphabetic" xml:space="preserve">loop</text><g><rect fill="white" stroke="none" x="733.8222011790103" y="613.565086132818" width="254.80992378296875" height="16.988611432000003"/></g><text fill="black" stroke="none" font-family="sans-serif" font-size="8.8pt" font-style="normal" font-weight="bold" text-decoration="normal" x="736.2724816740104" y="625.326432508818" text-anchor="start" dominant-baseline="alphabetic" xml:space="preserve">[While driver not found and time &lt; TIMEOUT]</text></g><g><g/><path fill="none" stroke="black" paint-order="fill stroke markers" d=" M 1223.6858785641275 875.2550429988181 L 1878.2855241563475 875.2550429988181 L 1878.2855241563475 1121.916612828818 L 1223.6858785641275 1121.916612828818 L 1223.6858785641275 875.2550429988181 Z" stroke-miterlimit="10" stroke-width="2.3336004714285714" stroke-dasharray=""/><path fill="white" stroke="black" paint-order="fill stroke markers" d=" M 1223.6858785641275 875.2550429988181 L 1223.6858785641275 894.8572869588181 L 1270.0450821611978 894.8572869588181 L 1279.8462041411979 885.0561649788181 L 1279.8462041411979 875.2550429988181 L 1223.6858785641275 875.2550429988181" stroke-miterlimit="10" stroke-width="2.3336004714285714" stroke-dasharray=""/><text fill="black" stroke="none" font-family="sans-serif" font-size="8.8pt" font-style="normal" font-weight="bold" text-decoration="normal" x="1240.0210818641276" y="888.3232056388181" text-anchor="start" dominant-baseline="alphabetic" xml:space="preserve">alt</text><g><rect fill="white" stroke="none" x="1293.731126946198" y="876.5618592628181" width="82.4456049353125" height="16.988611432000003"/></g><text fill="black" stroke="none" font-family="sans-serif" font-size="8.8pt" font-style="normal" font-weight="bold" text-decoration="normal" x="1296.181407441198" y="888.3232056388181" text-anchor="start" dominant-baseline="alphabetic" xml:space="preserve">[Driver found]</text><g><path fill="none" stroke="black" paint-order="fill stroke markers" d=" M 1223.6858785641275 1032.072994678818 L 1878.2855241563475 1032.072994678818" stroke-miterlimit="10" stroke-width="2.3336004714285714" stroke-dasharray="4.083800825"/></g><g/><g><rect fill="white" stroke="none" x="1293.731126946198" y="1033.379810942818" width="103.94102729859375" height="16.988611432000003"/></g><text fill="black" stroke="none" font-family="sans-serif" font-size="8.8pt" font-style="normal" font-weight="bold" text-decoration="normal" x="1296.181407441198" y="1045.141157318818" text-anchor="start" dominant-baseline="alphabetic" xml:space="preserve">[Driver not found]</text></g><g/><g><g/><path fill="none" stroke="black" paint-order="fill stroke markers" d=" M 669.0465585627604 1192.1579870188182 L 958.2648870921224 1192.1579870188182 L 958.2648870921224 1303.237369458818 L 669.0465585627604 1303.237369458818 L 669.0465585627604 1192.1579870188182 Z" stroke-miterlimit="10" stroke-width="2.3336004714285714" stroke-dasharray=""/><path fill="white" stroke="black" paint-order="fill stroke markers" d=" M 669.0465585627604 1192.1579870188182 L 669.0465585627604 1211.760230978818 L 733.0179447770182 1211.760230978818 L 742.8190667570182 1201.9591089988182 L 742.8190667570182 1192.1579870188182 L 669.0465585627604 1192.1579870188182" stroke-miterlimit="10" stroke-width="2.3336004714285714" stroke-dasharray=""/><text fill="black" stroke="none" font-family="sans-serif" font-size="8.8pt" font-style="normal" font-weight="bold" text-decoration="normal" x="685.3817618627604" y="1205.226149658818" text-anchor="start" dominant-baseline="alphabetic" xml:space="preserve">break</text><g><rect fill="white" stroke="none" x="756.7039895620181" y="1193.4648032828181" width="82.4456049353125" height="16.988611432000003"/></g><text fill="black" stroke="none" font-family="sans-serif" font-size="8.8pt" font-style="normal" font-weight="bold" text-decoration="normal" x="759.1542700570182" y="1205.226149658818" text-anchor="start" dominant-baseline="alphabetic" xml:space="preserve">[Driver found]</text></g><g/></g><g/><g/><g/><g/><g/><g/></g></svg>