<svg xmlns="http://www.w3.org/2000/svg" xmlns:xlink="http://www.w3.org/1999/xlink" version="1.1" width="2652.508420333333" height="2258.445807518726"><desc>title%20Booking%20a%20ride%20flow%0A%0Aactor%20Customer%0Aparticipant%20%22Authentication%20and%20Authorization%20Service%22%20as%20AuthService%0Aparticipant%20BookingService%0Aparticipant%20CustomerService%0Aparticipant%20DriverService%0Aparticipant%20TransactionService%0Aparticipant%20%22Message%20Queue%22%20as%20MQ%0Adatabase%20DB%0A%0ACustomer%20-%3E%20AuthService%3A%20**Headers**%3A%20Jwt%20token%5Cn%3Cwordwrap%3A50%3E**Body**%3A%20customer_id%2C%20current_location%2C%20destination_location%2C%20transportation_type%3C%2Fwordwrap%3E%0A%0Aalt%20Valid%20Token%0AAuthService%20-%3E%20BookingService%3A%3Cwordwrap%3A50%3Ecustomer_id%2C%20current_location%2C%20destination_location%2C%20transportation_type%3C%2Fwordwrap%3E%0ABookingService%20-%3E%20CustomerService%3A%20Get%20customer%20by%20customer_id%0ACustomerService%20-%3E%20DB%3A%20%3Cwordwrap%3A50%3EGet%20customer%20with%20id%20%3D%20customer_id%20and%20status%20%3D%20FREE%20and%20lock%20that%20customer%3C%2Fwordwrap%3E%0ACustomerService%20-%3E%20CustomerService%3A%20Set%20customer%20status%20%3D%20BOOKING%0ACustomerService%20-%3E%20DB%3A%20release%20customer%0ACustomerService%20-%3E%20BookingService%3A%20Customer%20with%20id%20%3D%20customer_id%20and%20status%20%3D%20BOOKING%0Aloop%20While%20driver%20not%20found%20and%20time%20%3C%20TIMEOUT%0ABookingService%20-%3E%20BookingService%3A%20Init%20driver%20blacklist%20if%20not%20exist%0ABookingService%20-%3E%20MQ%3A%20%3Cwordwrap%3A50%3ESend%20%5Bcustomer_id%2C%20current_location%2C%20destination_location%2C%20transportation_type%2C%20blacklist_driver_ids%5D%20to%20priority%20queue%20with%20priority%20%3D%20current_priority%5C%2B%5C%2B%3C%2Fwordwrap%3E%0ADriverService%20%3C-%20MQ%3A%20Get%20%5Bcustomer_id%2C%20current_location%2C%20destination_location%2C%20transportation_type%2C%20blacklist_driver_ids%5D%0ADriverService%20-%3E%20DB%3A%20%3Cwordwrap%3A50%3EGet%20driver%20with%20transportation_type%20%3D%20transportation_type%20and%20status%20%3D%20FREE%20and%20dis(pos(driver)%2C%20current_location)%20%3D%20MIN%20and%20driver_id%20not%20in%20(blacklist_driver_ids)%20and%20lock%20that%20driver%3C%2Fwordwrap%3E%0Aalt%20Driver%20found%0ADriverService%20-%3E%20DriverService%3A%20Update%20driver%20status%20%3D%20BOOKED%0ADriverService%20-%3E%20MQ%3A%20Return%20founded%20driver%0Aelse%20Driver%20not%20found%0ADriverService%20-%3E%20MQ%3A%20Return%20null%0Aend%0ABookingService%20%3C-%20MQ%3A%20Get%20found%20driver%0Aalt%20Driver%20found%0ABookingService%20-%3E%20DriverService%3A%3Cwordwrap%3A50%3EWait%20for%20founded%20driver%20to%20confirm%20(drivers%20will%20polling%20and%20if%20they%20see%20that%20there%20status%20%3D%20BOOKED%20they%20can%20either%20confirm%20or%20deny)%3C%2Fwordwrap%3E%0Aalt%20Driver%20confirmed%0ABookingService%20-%3E%20TransactionService%3A%20Create%20new%20transaction%20%5Bcustomer_id%2C%20driver_id%2C%20current_location%2C%20destination_location%5D%0ATransactionService%20-%3E%20DB%3A%20Create%20new%20transaction%20%5Bcustomer_id%2C%20driver_id%2C%20current_location%2C%20destination_location%5D%0Anote%20over%20BookingService%3A%20BREAK%20LOOP%0Aelse%20Driver%20denied%0ABookingService%20-%3E%20DriverService%3A%20Set%20driver%20status%20%3D%20FREE%0ABookingService%20-%3E%20BookingService%3A%20Set%20driver_id%20to%20blacklist%20for%20this%20ride%0Anote%20over%20BookingService%3A%20CONTINUE%20LOOP%0Aend%0Aend%0Aend%0ABookingService%20-%3E%20Customer%3A%20200%3A%20transaction_id%0Aelse%20Invalid%20Token%0AAuthService%20-%3E%20Customer%3A%20403%3A%20Forbidden%20%0Aend</desc><defs/><g><g/><g/><g/><g/><g/><g/><g/><g/><g/><g/><g/><g/><g/><g/><g/><g/><g/><g/><g/><g/><g/><g/><g/><g/><g/><g/><g/><g/><g/><g/><g/><g/><g/><g/><g/><g/><g/><g/><g/><g/><g/><g/><g/><g/><g/><g/><g/><g/><g/><g/><g/><g/><g/><g/><g/><g/><g/><g/><g/><g/><g/><g/><g/><g/><g/><g/><g/><g/><g/><g/><g/><g/><g/><g/><g/><g/><g/><g/><g/><g/><g/><g/><g/><g/><g/><g/><g/><g/><g/><g/><g/><g/><g/><g/><g/><g/><g/><g/><g/><g/><g/><g/><g/><g/><g/><g/><g/><g/><g/><g/><g/><g/><g/><g/><g/><g/><g/><g/><g/><g/><g/><g/><g/><g/><g/><g/><g/><g/><g/><g/><g/><g/><g/><g/><g/><g/><g/><g/><g/><g/><g/><g/><g/><g/><g/><g/><g/><g/><g/><g/><g/><g/><g/><g/><g/><g/><g/><g/><g/><g/><g/><g/><g/><g/><g/><g/><g/><g/><g/><g/><g/><g/><g/><g/><g/><g/><g/><g/><g/><g/><g/><g/><g/><g/><g/><g/><g/><g/><g/><g/><g/><g/><g/><g/><g/><g/><g/><g/><g/><g/><g/><g/><g/><g/><g/><g/><g/><g/><g/><g/><g/><g/><g/><g/><g/><g/><g/><g/><g/><g/><g/><g/><g/><g/><g/><g/><g/><g/><g/><g/><g/><g/><g/><g/><g/><g/><g/><g/><g/><g/><g/><g/><g/><g/><g/><g/><g/><g/><g/><g/><g/><g/><g/><g/><g/><g/><g/><g/><g/><g/><g/><g/><g/><g/><g/><g/><g/><g/><g/><g/><g/><g/><g/><g/><g/><g/><g/><g/><g/><g/><g/><g/><g/><g/><g/><g/><g/><g/><g/><g/><g/><g/><g/><g/><g/><g/><g/><g/><g/><g/><g/><g/><g/><g/><g/><g/><g/><g/><g/><g/><g/><g/><g/><g/><g/><g/><g/><g/><g/><g/><g/><g/><g/><g/><g/><g/><g/><g/><g/><g/><g/><g/><g/><g/><g/><g/><g/><g/><g/><g/><g/><g/><g/><g/><g/><g/><g/><g/><g/><g/><g/><g/><g/><g/><g/><g/><g/><g/><g><rect fill="white" stroke="none" x="0" y="0" width="2652" height="2258"/></g><g/><g><path fill="none" stroke="black" paint-order="fill stroke markers" d=" M 79.1629083 138.63904081872727 L 79.1629083 2258.445807518726" stroke-miterlimit="10" stroke-width="1.4659797833333332" stroke-dasharray="13.532121076923076,5.863919133333333"/><path fill="none" stroke="black" paint-order="fill stroke markers" d=" M 413.37894886666663 138.63904081872727 L 413.37894886666663 2258.445807518726" stroke-miterlimit="10" stroke-width="1.4659797833333332" stroke-dasharray="13.532121076923076,5.863919133333333"/><path fill="none" stroke="black" paint-order="fill stroke markers" d=" M 747.5949894333332 138.63904081872727 L 747.5949894333332 2258.445807518726" stroke-miterlimit="10" stroke-width="1.4659797833333332" stroke-dasharray="13.532121076923076,5.863919133333333"/><path fill="none" stroke="black" paint-order="fill stroke markers" d=" M 1190.2250924999998 138.63904081872727 L 1190.2250924999998 2258.445807518726" stroke-miterlimit="10" stroke-width="1.4659797833333332" stroke-dasharray="13.532121076923076,5.863919133333333"/><path fill="none" stroke="black" paint-order="fill stroke markers" d=" M 1456.7813352333333 138.63904081872727 L 1456.7813352333333 2258.445807518726" stroke-miterlimit="10" stroke-width="1.4659797833333332" stroke-dasharray="13.532121076923076,5.863919133333333"/><path fill="none" stroke="black" paint-order="fill stroke markers" d=" M 1824.8659180166667 138.63904081872727 L 1824.8659180166667 2258.445807518726" stroke-miterlimit="10" stroke-width="1.4659797833333332" stroke-dasharray="13.532121076923076,5.863919133333333"/><path fill="none" stroke="black" paint-order="fill stroke markers" d=" M 2192.9505008 138.63904081872727 L 2192.9505008 2258.445807518726" stroke-miterlimit="10" stroke-width="1.4659797833333332" stroke-dasharray="13.532121076923076,5.863919133333333"/><path fill="none" stroke="black" paint-order="fill stroke markers" d=" M 2520.5702398333333 138.63904081872727 L 2520.5702398333333 2258.445807518726" stroke-miterlimit="10" stroke-width="1.4659797833333332" stroke-dasharray="13.532121076923076,5.863919133333333"/></g><g><g><path fill="white" stroke="black" paint-order="fill stroke markers" d=" M 89.190210018 64.22590701672728 A 10.027301717999999 10.027301717999999 0 1 1 89.19020500434955 64.21587971668049 M 79.1629083 74.25320873472727 L 79.1629083 95.71515276272726 M 66.496842972 81.99358199072728 L 91.828973628 81.99358199072728 M 79.1629083 95.71515276272726 L 66.496842972 115.76975619872726 M 79.1629083 95.71515276272726 L 91.828973628 115.76975619872726" stroke-miterlimit="10" stroke-width="2.990598758" stroke-dasharray=""/></g><g><g/><text fill="black" stroke="none" font-family="sans-serif" font-size="12pt" font-style="normal" font-weight="normal" text-decoration="normal" x="44.48712705" y="133.36151359872727" text-anchor="start" dominant-baseline="alphabetic" xml:space="preserve">Customer</text></g><path fill="none" stroke="none"/><g><path fill="white" stroke="black" paint-order="fill stroke markers" d=" M 250.20204833766664 91.31721341272728 L 576.5558493956667 91.31721341272728 L 576.5558493956667 138.63904081872727 L 250.20204833766664 138.63904081872727 L 250.20204833766664 91.31721341272728 Z" stroke-miterlimit="10" stroke-width="2.814681184" stroke-dasharray=""/></g><g><text fill="black" stroke="none" font-family="sans-serif" font-size="12pt" font-style="normal" font-weight="normal" text-decoration="normal" x="269.28910511666663" y="121.04728341872726" text-anchor="start" dominant-baseline="alphabetic" xml:space="preserve">Authentication and Authorization Service</text></g><path fill="none" stroke="none"/><g><path fill="white" stroke="black" paint-order="fill stroke markers" d=" M 672.9219951543332 91.14129583872727 L 822.2679837123333 91.14129583872727 L 822.2679837123333 138.63904081872727 L 672.9219951543332 138.63904081872727 L 672.9219951543332 91.14129583872727 Z" stroke-miterlimit="10" stroke-width="2.814681184" stroke-dasharray=""/></g><g><g/><text fill="black" stroke="none" font-family="sans-serif" font-size="12pt" font-style="normal" font-weight="normal" text-decoration="normal" x="692.0090519333332" y="121.04728341872726" text-anchor="start" dominant-baseline="alphabetic" xml:space="preserve">BookingService</text></g><path fill="none" stroke="none"/><g><path fill="white" stroke="black" paint-order="fill stroke markers" d=" M 1109.7864732209998 91.14129583872727 L 1270.6637117789999 91.14129583872727 L 1270.6637117789999 138.63904081872727 L 1109.7864732209998 138.63904081872727 L 1109.7864732209998 91.14129583872727 Z" stroke-miterlimit="10" stroke-width="2.814681184" stroke-dasharray=""/></g><g><g/><text fill="black" stroke="none" font-family="sans-serif" font-size="12pt" font-style="normal" font-weight="normal" text-decoration="normal" x="1128.8735299999998" y="121.04728341872726" text-anchor="start" dominant-baseline="alphabetic" xml:space="preserve">CustomerService</text></g><path fill="none" stroke="none"/><g><path fill="white" stroke="black" paint-order="fill stroke markers" d=" M 1389.6864659543332 91.14129583872727 L 1523.8762045123333 91.14129583872727 L 1523.8762045123333 138.63904081872727 L 1389.6864659543332 138.63904081872727 L 1389.6864659543332 91.14129583872727 Z" stroke-miterlimit="10" stroke-width="2.814681184" stroke-dasharray=""/></g><g><g/><text fill="black" stroke="none" font-family="sans-serif" font-size="12pt" font-style="normal" font-weight="normal" text-decoration="normal" x="1408.7735227333333" y="121.04728341872726" text-anchor="start" dominant-baseline="alphabetic" xml:space="preserve">DriverService</text></g><path fill="none" stroke="none"/><g><path fill="white" stroke="black" paint-order="fill stroke markers" d=" M 1737.6030799876667 91.14129583872727 L 1912.1287560456667 91.14129583872727 L 1912.1287560456667 138.63904081872727 L 1737.6030799876667 138.63904081872727 L 1737.6030799876667 91.14129583872727 Z" stroke-miterlimit="10" stroke-width="2.814681184" stroke-dasharray=""/></g><g><g/><text fill="black" stroke="none" font-family="sans-serif" font-size="12pt" font-style="normal" font-weight="normal" text-decoration="normal" x="1756.6901367666667" y="121.04728341872726" text-anchor="start" dominant-baseline="alphabetic" xml:space="preserve">TransactionService</text></g><path fill="none" stroke="none"/><g><path fill="white" stroke="black" paint-order="fill stroke markers" d=" M 2115.1603190210003 91.31721341272728 L 2270.7406825790003 91.31721341272728 L 2270.7406825790003 138.63904081872727 L 2115.1603190210003 138.63904081872727 L 2115.1603190210003 91.31721341272728 Z" stroke-miterlimit="10" stroke-width="2.814681184" stroke-dasharray=""/></g><g><text fill="black" stroke="none" font-family="sans-serif" font-size="12pt" font-style="normal" font-weight="normal" text-decoration="normal" x="2134.2473758" y="121.04728341872726" text-anchor="start" dominant-baseline="alphabetic" xml:space="preserve">Message Queue</text></g><g><path fill="white" stroke="black" paint-order="fill stroke markers" d=" M 2494.8862740293334 104.15919631472727 L 2494.8862740293334 67.21650577472727 L 2546.254205637333 67.21650577472727 L 2546.254205637333 104.15919631472727" stroke-miterlimit="10" stroke-width="2.990598758" stroke-dasharray=""/><path fill="white" stroke="black" paint-order="fill stroke markers" d=" M 2546.254205637333 65.93230748452727 L 2546.252921449745 66.04841114828363 L 2546.249069015397 66.16450320177037 L 2546.2426487195294 66.28057203587888 L 2546.233661204167 66.39660604382247 L 2546.222107368054 66.51259362229706 L 2546.2079883665633 66.62852317264142 L 2546.1913056115845 66.74438310199717 L 2546.1720607713787 66.86016182446788 L 2546.150255770414 66.97584776227782 L 2546.1258927891718 67.09142934692959 L 2546.0989742639304 67.20689502036106 L 2546.06950288652 67.32223323610108 L 2546.0374816040535 67.43743246042423 L 2546.0029136186326 67.55248117350406 L 2545.965802387027 67.66736787056512 L 2545.9261516203287 67.78208106303346 L 2545.883965283582 67.89660927968542 L 2545.8392475953847 68.01094106779477 L 2545.7920030274686 68.125064994278 L 2545.742236304251 68.23896964683753 L 2545.6899524023634 68.35264363510305 L 2545.6351565501514 68.46607559177045 L 2545.5778542271555 68.57925417373859 L 2545.5180511635594 68.6921680632436 L 2545.4557533396205 68.8048059689906 L 2545.3909669850686 68.9171566272829 L 2545.323698578485 69.02920880314831 L 2545.2539548466552 69.14095129146257 L 2545.181742763894 69.25237291807001 L 2545.1070695513486 69.36346254090081 L 2545.029942676279 69.47420905108525 L 2544.9503698513086 69.58460137406462 L 2544.8683590336523 69.6946284706986 L 2544.783918424325 69.80427933836923 L 2544.697056467316 69.91354301208109 L 2544.6077818487497 70.0224085655579 L 2544.516103496013 70.13086511233499 L 2544.4220305768645 70.2389018068481 L 2544.3255724985183 70.34650784551779 L 2544.2267389067015 70.45367246782988 L 2544.1255396846914 70.56038495741142 L 2544.021984952325 70.66663464310238 L 2543.91608506499 70.77241090002276 L 2543.807850612587 70.87770315063499 L 2543.69729241847 70.98250086580175 L 2543.5844215383677 71.08679356583887 L 2543.469249259273 71.19057082156326 L 2543.3517870983183 71.29382225533581 L 2543.2320468016214 71.3965375420992 L 2543.1100403431124 71.49870641041032 L 2542.9857799233355 71.60031864346752 L 2542.8592779682294 71.70136408013215 L 2542.7305471278837 71.80183261594476 L 2542.599600275276 71.90171420413547 L 2542.466450504981 72.00099885662871 L 2542.3311111318662 72.09967664504197 L 2542.193595689755 72.19773770167863 L 2542.053917930078 72.29517222051476 L 2541.9120918204944 72.39197045817964 L 2541.7681315434966 72.48812273493022 L 2541.622051494993 72.58361943561889 L 2541.4738662828663 72.67845101065521 L 2541.323590725514 72.77260797696069 L 2541.171239850367 72.86608091891713 L 2541.0168288923855 72.95886048930828 L 2540.860373292537 73.05093741025439 L 2540.7018886962514 73.1423024741401 L 2540.5413909518556 73.23294654453515 L 2540.3788961089904 73.32286055710806 L 2540.2144204170045 73.41203552053247 L 2540.0479803233306 73.50046251738637 L 2539.8795924718393 73.58813270504376 L 2539.709273701175 73.67503731655893 L 2539.5370410430733 73.76116766154315 L 2539.362911720656 73.8465151270337 L 2539.1869031467104 73.93107117835515 L 2539.0090329219474 74.01482735997283 L 2538.8293188332414 74.09777529633837 L 2538.647778851851 74.17990669272727 L 2538.4644311316233 74.26121333606834 L 2538.2792940071777 74.34168709576497 L 2538.0923859920717 74.42131992450827 L 2537.9037257769523 74.50010385908172 L 2537.7133322276827 74.57803102115753 L 2537.5212243834594 74.65509361808442 L 2537.327421454907 74.73128394366692 L 2537.131942822157 74.80659437893597 L 2536.934808032909 74.88101739291078 L 2536.7360368004784 74.954545543352 L 2536.5356490018225 75.02717147750583 L 2536.3336646755542 75.09888793283939 L 2536.130104019938 75.16968773776692 L 2535.9249873908693 75.23956381236691 L 2535.718335299841 75.30850916909014 L 2535.5101684118886 75.37651691345839 L 2535.300507543529 75.44358024475389 L 2535.089373660673 75.50969245669941 L 2534.876787876534 75.57484693812883 L 2534.662771449512 75.63903717364832 L 2534.4473457810727 75.70225674428781 L 2534.230532413603 75.76449932814293 L 2534.0123530282585 75.82575870100715 L 2533.7928294427966 75.88602873699422 L 2533.571983609392 75.9453034091508 L 2533.349837612445 76.00357679005906 L 2533.1264136663694 76.06084305242945 L 2532.901734113374 76.11709646968346 L 2532.675821421227 76.17233141652626 L 2532.4486981810087 76.22654236950919 L 2532.220387104855 76.27972390758212 L 2531.990911023682 76.33187071263556 L 2531.7602928849074 76.38297757003247 L 2531.5285557501525 76.43303936912969 L 2531.2957227929382 76.48205110378902 L 2531.0618172963655 76.53000787287786 L 2530.8268626507893 76.57690488075924 L 2530.5908823514787 76.62273743777148 L 2530.353899996267 76.66750096069704 L 2530.115939283192 76.71119097322097 L 2529.877024008126 76.75380310637838 L 2529.637178062399 76.7953330989915 L 2529.3964254304046 76.83577679809567 L 2529.154790187206 76.87513015935467 L 2528.9122964961252 76.91338924746518 L 2528.66896860633 76.95055023655026 L 2528.424830850406 76.98660941054197 L 2528.1799076419265 77.02156316355298 L 2527.934223473007 77.0554080002371 L 2527.6878029118607 77.08814053613887 L 2527.4406706003374 77.11975749803197 L 2527.192851251463 77.15025572424656 L 2526.9443696469652 77.17963216498545 L 2526.695250634798 77.20788388262903 L 2526.4455191266547 77.23500805202907 L 2526.1952000954784 77.26100196079126 L 2525.944318572963 77.28586300954636 L 2525.6928996470524 77.30958871221023 L 2525.440968459429 77.33217669623237 L 2525.188550203002 77.3536247028332 L 2524.9356701193865 77.37393058722992 L 2524.6823534963805 77.39309231885103 L 2524.428625665435 77.41110798153933 L 2524.1745119991215 77.42797577374357 L 2523.9200379085946 77.44369400869857 L 2523.665228841052 77.45826111459395 L 2523.410110277188 77.47167563473126 L 2523.1547077286455 77.48393622766964 L 2522.899046735468 77.49504166736004 L 2522.6431528635403 77.50499084326773 L 2522.3870517020373 77.51378276048342 L 2522.1307688608613 77.52141653982272 L 2521.874329968083 77.52789141791405 L 2521.617760667378 77.53320674727497 L 2521.3610866154627 77.53736199637703 L 2521.104333479528 77.54035674969873 L 2520.8475269346736 77.54219070776728 L 2520.5906926613407 77.54286368718834 L 2520.3338563427415 77.5423756206646 L 2520.0770436622947 77.54072655700226 L 2519.820280301054 77.53791666110631 L 2519.563591935141 77.53394621396401 L 2519.3070042331797 77.5288156126168 L 2519.0505428537253 77.52252537012046 L 2518.7942334427025 77.51507611549408 L 2518.538101630839 77.50646859365686 L 2518.282173031102 77.49670366535383 L 2518.026473236139 77.48578230706968 L 2517.7710278157156 77.47370561093115 L 2517.515862314161 77.46047478459778 L 2517.2610022478134 77.44609115114116 L 2517.0064731024663 77.43055614891269 L 2516.752300330823 77.4138713313996 L 2516.498509349948 77.39603836706978 L 2516.245125538728 77.37705903920477 L 2515.992174235334 77.35693524572156 L 2515.739680734684 77.33566899898271 L 2515.4876702859187 77.3132624255952 L 2515.236168089873 77.28971776619767 L 2514.985199296556 77.26503737523646 L 2514.734789002639 77.23922372073008 L 2514.484962248942 77.21227938402248 L 2514.235744017932 77.18420705952488 L 2513.987159231225 77.15500955444634 L 2513.739232747093 77.12468978851301 L 2513.4919893579768 77.09325079367625 L 2513.2454537880094 77.06069571380931 L 2512.9996506905422 77.02702780439309 L 2512.754604645681 76.99225043219045 L 2512.510340157826 76.95636707490962 L 2512.266881653221 76.91938132085644 L 2512.0242534775152 76.8812968685755 L 2511.782479893323 76.84211752648028 L 2511.5415850778018 76.80184721247234 L 2511.3015931202326 76.76048995354952 L 2511.0625280196105 76.71804988540326 L 2510.824413682247 76.67453125200501 L 2510.587273919377 76.62993840518182 L 2510.351132444779 76.58427580418123 L 2510.116012872404 76.5375480152253 L 2509.881938714014 76.48975971105395 L 2509.648933376828 76.4409156704578 L 2509.4170201611873 76.39102077780021 L 2509.1862222582195 76.34008002252885 L 2508.956562747522 76.28809849867682 L 2508.7280645948554 76.23508140435315 L 2508.5007506498446 76.18103404122314 L 2508.2746436436937 76.12596181397802 L 2508.049766186916 76.06987022979465 L 2507.8261407670684 76.01276489778468 L 2507.603789746508 75.95465152843374 L 2507.382735360151 75.89553593303033 L 2507.1629997132513 75.83542402308474 L 2506.944604779191 75.77432180973787 L 2506.727572397282 75.71223540316012 L 2506.511924270581 75.64917101194042 L 2506.2976819637206 75.58513494246534 L 2506.0848669007537 75.52013359828848 L 2505.873500363009 75.45417347949005 L 2505.663603486964 75.387261182027 L 2505.455197262131 75.31940339707329 L 2505.24830252896 75.25060691035088 L 2505.042939976751 75.18087860145111 L 2504.839130141588 75.11022544314677 L 2504.6368934042853 75.03865450069482 L 2504.4362499883478 74.96617293112983 L 2504.2372199579495 74.89278798254838 L 2504.039823215928 74.81850699338418 L 2503.844079501793 74.74333739167423 L 2503.650008389753 74.66728669431606 L 2503.4576292867573 74.59036250631604 L 2503.2669614305555 74.51257252002887 L 2503.0780238877746 74.43392451438834 L 2502.8908355520116 74.35442635412949 L 2502.705415141944 74.27408598900207 L 2502.521781199458 74.19291145297568 L 2502.339952087795 74.11091086343625 L 2502.1599459897147 74.0280924203744 L 2501.981780905677 73.94446440556545 L 2501.805474652042 73.86003518174117 L 2501.6310448592876 73.77481319175358 L 2501.458508970248 73.68880695773066 L 2501.2878842383684 73.60202508022415 L 2501.11918772598 73.51447623734948 L 2500.9524363025926 73.42616918391799 L 2500.7876466432103 73.33711275056143 L 2500.6248352266616 73.2473158428489 L 2500.4640183339525 73.15678744039637 L 2500.3052120466386 73.06553659596862 L 2500.148432245215 72.97357243457408 L 2499.993694607533 72.88090415255222 L 2499.841014607226 72.78754101665405 L 2499.690407512168 72.69349236311534 L 2499.5418883829416 72.59876759672306 L 2499.395472071337 72.50337618987494 L 2499.2511732188627 72.40732768163215 L 2499.1090062552844 72.31063167676548 L 2498.968985397179 72.21329784479485 L 2498.831124646517 72.11533591902233 L 2498.695437789257 72.01675569555886 L 2498.5619383939734 71.91756703234465 L 2498.4306398104927 71.81777984816335 L 2498.3015551685653 71.71740412165023 L 2498.1746973765466 71.6164498902943 L 2498.050079120111 71.51492724943458 L 2497.92771286098 71.41284635125052 L 2497.8076108356777 71.31021740374689 L 2497.6897850543064 71.20705066973291 L 2497.5742472993456 71.10335646579603 L 2497.4610091244754 70.99914516127019 L 2497.350081853418 70.89442717719905 L 2497.241476578809 70.78921298529372 L 2497.1352041610844 70.68351310688571 L 2497.0312752273985 70.57733811187481 L 2496.9297001705568 70.47069861767201 L 2496.8304891479816 70.36360528813788 L 2496.733652080691 70.25606883251612 L 2496.6391986523126 70.14810000436268 L 2496.54713830811 70.03970960047042 L 2496.45748025404 69.93090845978938 L 2496.3702334558348 69.82170746234296 L 2496.2854066381005 69.71211752813993 L 2496.203008283448 69.60214961608236 L 2496.123046631645 69.49181472286983 L 2496.0455296787895 69.38112388189971 L 2495.9704651765123 69.27008816216386 L 2495.8978606312007 69.15871866714173 L 2495.8277233032495 69.04702653368999 L 2495.7600602063326 68.93502293092892 L 2495.694878106703 68.82271905912549 L 2495.6321835225167 68.71012614857324 L 2495.57198272318 68.59725545846945 L 2495.5142817287224 68.48411827578903 L 2495.4590863091953 68.370725914156 L 2495.406401984095 68.257089712712 L 2495.3562340218095 68.1432210349825 L 2495.308587439094 68.02913126774038 L 2495.2634670005664 67.91483181986729 L 2495.220877218233 67.80033412121276 L 2495.1808223510366 67.68564962145125 L 2495.143306404431 67.57078978893715 L 2495.108333129979 67.45576610955801 L 2495.0759060249793 67.34059008558592 L 2495.0460283321154 67.22527323452728 L 2495.018703039131 67.10982708797111 L 2494.9939328785335 66.99426319043586 L 2494.971720327318 66.87859309821498 L 2494.952067606721 66.7628283782213 L 2494.9349766819983 66.64698060683034 L 2494.920449262228 66.53106136872272 L 2494.90848680014 66.41508225572564 L 2494.8990904919706 66.29905486565374 L 2494.892261277343 66.18299080114936 L 2494.8879998391726 66.06690166852222 L 2494.8863066035997 65.95079907658884 L 2494.8871817399468 65.83469463551165 L 2494.890625160701 65.71859995563804 L 2494.8966365215224 65.60252664633921 L 2494.9052152212803 65.4864863148494 L 2494.9163604021123 65.37049056510503 L 2494.930070949509 65.25455099658443 L 2494.9463454924276 65.13867920314783 L 2494.9651824034268 65.022886771878 L 2494.986579798832 64.9071852819216 L 2495.0105355389205 64.79158630333119 L 2495.037047228139 64.6761013959083 L 2495.06611221534 64.56074210804745 L 2495.09772759405 64.44551997558126 L 2495.131890202757 64.33044652062699 L 2495.168596625228 64.21553325043423 L 2495.207843190852 64.10079165623424 L 2495.249625975005 63.98623321209082 L 2495.2939407994436 63.87186937375292 L 2495.340783232722 63.75771157750907 L 2495.390148590636 63.643771239043765 L 2495.442031936691 63.530059752295905 L 2495.4964280825952 63.4165884883194 L 2495.5533315887797 63.30336879414609 L 2495.6127367649415 63.19041199165104 L 2495.6746376706124 63.07772937642037 L 2495.739028115753 62.96533221662171 L 2495.8059016613734 62.853231751877374 L 2495.8752516201735 62.741439192140405 L 2495.947071057216 62.62996571657363 L 2496.0213527906167 62.51882247243171 L 2496.0980893922647 62.40802057394644 L 2496.177273188563 62.297571101215325 L 2496.2588962611985 62.18748509909361 L 2496.3429504479323 62.077773576089754 L 2496.4294273434148 61.96844750326465 L 2496.518318300029 61.85951781313447 L 2496.6096144287535 61.75099539857744 L 2496.7033066000513 61.642891111744596 L 2496.7993854447836 61.535215762974524 L 2496.8978413551454 61.42798011971238 L 2496.998664485628 61.321194905433124 L 2497.1018447540027 61.214870798569194 L 2497.2073718423285 61.10901843144268 L 2497.3152351979843 61.00364838920207 L 2497.4254240347245 60.8987712087638 L 2497.5379273337576 60.7943973777585 L 2497.652733844847 60.690537333482304 L 2497.769832087437 60.587201461853084 L 2497.8892103518015 60.48440009637189 L 2498.0108567002135 60.38214351708961 L 2498.134758968139 60.28044194957895 L 2498.2609047654555 60.17930556391191 L 2498.3892814776873 60.07874447364278 L 2498.519876267271 59.97876873479679 L 2498.652676074835 59.879388344864495 L 2498.7876676205115 59.780613241802094 L 2498.9248374052568 59.68245330303757 L 2499.0641717122066 59.58491834448299 L 2499.2056566080473 59.488018119552954 L 2499.349277944407 59.39176231818919 L 2499.495021359271 59.29616056589162 L 2499.6428722784203 59.20122242275581 L 2499.7928159168855 59.10695738251696 L 2499.9448372804277 59.01337487160054 L 2500.0989211670376 58.92048424817965 L 2500.2550521684548 58.82829480123923 L 2500.413214671709 58.73681574964715 L 2500.573392860682 58.64605624123233 L 2500.7355707176885 58.55602535186999 L 2500.8997320250774 58.46673208457403 L 2501.0658603668553 58.378185368596775 L 2501.233939130326 58.29039405853603 L 2501.4039515077534 58.203366933449644 L 2501.575880498042 58.11711269597761 L 2501.7497089084354 58.03163997147178 L 2501.9254193562374 57.946957307133395 L 2502.1029942705495 57.86307317115831 L 2502.2824158940293 57.77999595189023 L 2502.463666284663 57.697733956981835 L 2502.646727317562 57.61629541256407 L 2502.831580686777 57.53568846242352 L 2503.018207907125 57.45592116718802 L 2503.2065903160383 57.377001503520624 L 2503.396709075434 57.29893736332193 L 2503.588545173594 57.221736552940904 L 2503.7820794270688 57.145406792394255 L 2503.977292482594 57.06995571459442 L 2504.174164819027 56.99539086458631 L 2504.372676749298 56.9217196987928 L 2504.5728084223792 56.84894958426905 L 2504.774539825271 56.7770877979659 L 2504.977850785 56.70614152600207 L 2505.1827209706403 56.63611786294565 L 2505.3891298953445 56.56702381110459 L 2505.597056918391 56.4988662798265 L 2505.8064812472517 56.4316520848077 L 2506.0173819396678 56.36538794741169 L 2506.229737905746 56.30008049399698 L 2506.443527910066 56.235736255254494 L 2506.658730573807 56.17236166555449 L 2506.8753243768806 56.109963062303116 L 2507.0932876600878 56.04854668530871 L 2507.312598627281 55.98811867615779 L 2507.5332353475474 55.9286850776009 L 2507.755175757398 55.870251832948384 L 2507.978397662977 55.81282478547601 L 2508.2028787422796 55.756409677840665 L 2508.4285965473855 55.7010121515061 L 2508.655528506702 55.64663774617878 L 2508.883651927222 55.59329189925394 L 2509.112943996794 55.540979945271815 L 2509.343381786402 55.48970711538419 L 2509.574942252459 55.43947853683136 L 2509.8076022391115 55.39029923242929 L 2510.0413384805543 55.342174120067455 L 2510.2761276033584 55.295108012216986 L 2510.5119461288073 55.249105615449444 L 2510.748770475245 55.204171529966175 L 2510.9865769604335 55.16031024913828 L 2511.2253418039227 55.11752615905728 L 2511.465041129428 55.07582353809654 L 2511.7056509672157 55.03520655648341 L 2511.9471472565033 54.995679275882196 L 2512.189505847862 54.957245648988014 L 2512.432702505636 54.91990951913154 L 2512.676712910361 54.88367461989463 L 2512.9215126612007 54.84854457473702 L 2513.1670772783837 54.81452289663396 L 2513.413382205653 54.78161298772489 L 2513.660402812721 54.74981813897329 L 2513.9081143977323 54.719141529837536 L 2514.156492189736 54.68958622795297 L 2514.4055113511595 54.66115518882517 L 2514.6551469802935 54.63385125553434 L 2514.9053741137836 54.607677158451054 L 2515.156167729125 54.58263551496322 L 2515.4075027471654 54.55872882921432 L 2515.6593540346116 54.53595949185299 L 2515.9116964065456 54.51432977979401 L 2516.16450462894 54.493841855990546 L 2516.417753421184 54.47449776921792 L 2516.671417458608 54.45629945386868 L 2516.925471375021 54.43924872975919 L 2517.1798897652425 54.42334730194767 L 2517.434647187645 54.40859676056364 L 2517.6897181667 54.39499858064894 L 2517.9450771955203 54.382554122010234 L 2518.2006987384175 54.37126462908303 L 2518.456557233449 54.36113123080719 L 2518.7126270949793 54.352154940514104 L 2518.968882716236 54.34433665582533 L 2519.2252984718693 54.33767715856281 L 2519.481848720518 54.332177114670735 L 2519.738507807371 54.3278370741489 L 2519.9952500667337 54.32465747099774 L 2520.2520498245935 54.32263862317493 L 2520.5088814011897 54.32178073256356 L 2520.7657191135772 54.32208388495198 L 2521.0225372782 54.323548050025195 L 2521.279310213455 54.32617308136794 L 2521.5360122422635 54.32995871647925 L 2521.7926176946353 54.33490457679876 L 2522.0491009102398 54.341010167744585 L 2522.305436240969 54.34827487876271 L 2522.5615980535035 54.356697983388074 L 2522.8175607318753 54.366278639317244 L 2523.07329868003 54.377015888492615 L 2523.328786324386 54.38890865719821 L 2523.5839981163917 54.40195575616707 L 2523.8389085350805 54.416155880700174 L 2524.093492089623 54.43150761079689 L 2524.347723321876 54.44800941129702 L 2524.601576808928 54.46565963203425 L 2524.855027165642 54.48445650800123 L 2525.1080490471927 54.50439815952602 L 2525.3606171516044 54.52548259246007 L 2525.612706222276 54.547707698377685 L 2525.8642910505105 54.57107125478677 L 2526.115346478035 54.59557092535117 L 2526.365847399516 54.62120426012424 L 2526.6157687650702 54.64796869579386 L 2526.865085582769 54.675861555938766 L 2527.1137729211387 54.704880051296186 L 2527.361805911652 54.73502128004078 L 2527.6091597512177 54.76628222807478 L 2527.855809704657 54.79865976932943 L 2528.101731107181 54.832150666077595 L 2528.3468993668534 54.86675156925751 L 2528.591289967053 54.902459018807676 L 2528.8348784689233 54.939269444012915 L 2529.077640513817 54.977179163861365 L 2529.319551825733 55.016184387412636 L 2529.56058821374 55.05628121417688 L 2529.8007255744014 55.097465634504836 L 2530.0399398941804 55.13973352998879 L 2530.278207251845 55.183080673874414 L 2530.5155038208577 55.22750273148345 L 2530.751805871759 55.27299526064714 L 2530.9870897745413 55.319553712150494 L 2531.22133200101 55.36717343018715 L 2531.454509127138 55.415849652824996 L 2531.6865978354067 55.46557751248233 L 2531.917574917139 55.51635203641461 L 2532.147417274819 55.56816814721177 L 2532.376101924402 55.62102066330591 L 2532.6036059976145 55.67490429948947 L 2532.829906744238 55.729813667443715 L 2533.0549815343875 55.78574327627762 L 2533.27880786077 55.84268753307691 L 2533.5013633409408 55.900640743463356 L 2533.722625719536 55.95959711216422 L 2533.9425728705037 56.01955074359175 L 2534.1611827993106 56.080495642432766 L 2534.378433645147 56.14242571424818 L 2534.594303683109 56.205334766082416 L 2534.8087713263726 56.26921650708272 L 2535.0218151283525 56.33406454912821 L 2535.2334137848457 56.39987240746873 L 2535.4435461361627 56.46663350137329 L 2535.6521911692444 56.53434115478812 L 2535.85932801976 56.60298859700433 L 2536.0649359741983 56.67256896333487 L 2536.268994471935 56.74307529580111 L 2536.4714831072897 56.81450054382856 L 2536.672381631568 56.886837564951925 L 2536.871669955085 56.96007912552939 L 2537.069328149174 57.034217901465915 L 2537.265336448181 57.1092464789457 L 2537.459675251439 57.185157355173516 L 2537.6523251252297 57.26194293912499 L 2537.8432668047258 57.33959555230574 L 2538.0324811959194 57.41810742951914 L 2538.2199493775283 57.49747071964289 L 2538.4056526028908 57.577677486414125 L 2538.5895723018393 57.65871970922301 L 2538.771690082557 57.74058928391478 L 2538.951987733418 57.82327802360021 L 2539.130447224806 57.90677765947423 L 2539.3070507109223 57.99107984164283 L 2539.481780531565 58.07617613995806 L 2539.654619213897 58.162058044860984 L 2539.8255494741948 58.248716968232685 L 2539.9945542195746 58.336144244253056 L 2540.1616165497026 58.42433113026733 L 2540.326719758485 58.51326880766041 L 2540.4898473357384 58.60294838273867 L 2540.6509829688416 58.69336088761932 L 2540.8101105443648 58.78449728112723 L 2540.9672141496835 58.876348449698995 L 2541.122278074568 58.96890520829429 L 2541.275286812755 59.06215830131439 L 2541.4262250634984 59.156098403527714 L 2541.575077733098 59.25071612100231 L 2541.721829936412 59.34600199204529 L 2541.8664669983423 59.44194648814894 L 2542.008974455303 59.53854001494362 L 2542.1493380566667 59.63577291315713 L 2542.2875437661905 59.73363545958069 L 2542.4235777634185 59.832117868041195 L 2542.557426445065 59.93121029037987 L 2542.689076426373 60.030902817437074 L 2542.8185145424536 60.13118548004316 L 2542.945727849604 60.232048250015445 L 2543.070703626598 60.33348104116098 L 2543.1934293759637 60.43547371028517 L 2543.313892825228 60.53801605820612 L 2543.4320819281456 60.64109783077446 L 2543.547984865905 60.74470871989886 L 2543.66159004831 60.84883836457673 L 2543.7728861149353 60.95347635193039 L 2543.8818619362683 61.05861221824829 L 2543.9885066148177 61.16423545003143 L 2544.0928094862034 61.27033548504463 L 2544.1947601202264 61.37690171337282 L 2544.2943483219074 61.48392347848196 L 2544.3915641325098 61.59139007828474 L 2544.4863978305334 61.69929076621072 L 2544.578839932687 61.807614752281026 L 2544.6688811948384 61.91635120418733 L 2544.7565126129352 62.025489248375045 L 2544.8417254239093 62.13501797113071 L 2544.9245111065507 62.24492641967331 L 2545.0048613823596 62.35520360324959 L 2545.082768216376 62.46583849423309 L 2545.1582238179813 62.5768200292269 L 2545.2312206416777 62.68813711017002 L 2545.301751387844 62.7997786054471 L 2545.3698090034645 62.91173335100166 L 2545.435386682834 63.02399015145244 L 2545.49847786824 63.13653778121293 L 2545.5590762506154 63.24936498561395 L 2545.617175770173 63.362460482029086 L 2545.67277061701 63.475812961002944 L 2545.7258552316866 63.589411087382075 L 2545.776424305787 63.70324350144852 L 2545.824472782445 63.817298820055726 L 2545.8699958568527 63.93156563776687 L 2545.9129889767414 64.04603252799542 L 2545.953447842835 64.16068804414773 L 2545.99136840928 64.27552072076773 L 2546.0267468840516 64.39051907468345 L 2546.0595797293317 64.50567160615535 L 2546.089863661863 64.62096680002621 L 2546.1175956532784 64.73639312687276 L 2546.142772930401 64.85193904415847 L 2546.165392975524 64.96759299738791 L 2546.185453526662 65.08334342126214 L 2546.2029525777766 65.19917874083524 L 2546.2178883789775 65.31508737267177 L 2546.230259436697 65.43105772600512 L 2546.240064513839 65.54707820389663 L 2546.2473026299044 65.66313720439517 L 2546.251973061088 65.77922312169743 L 2546.25407534035 65.89532434730839 M 2546.254205637333 102.87499802452727 L 2546.252921449745 102.99110168828363 L 2546.249069015397 103.10719374177037 L 2546.2426487195294 103.22326257587888 L 2546.233661204167 103.33929658382247 L 2546.222107368054 103.45528416229706 L 2546.2079883665633 103.57121371264142 L 2546.1913056115845 103.68707364199717 L 2546.1720607713787 103.80285236446788 L 2546.150255770414 103.91853830227782 L 2546.1258927891718 104.03411988692959 L 2546.0989742639304 104.14958556036106 L 2546.06950288652 104.26492377610109 L 2546.0374816040535 104.38012300042423 L 2546.0029136186326 104.49517171350406 L 2545.965802387027 104.61005841056512 L 2545.9261516203287 104.72477160303346 L 2545.883965283582 104.83929981968542 L 2545.8392475953847 104.95363160779478 L 2545.7920030274686 105.067755534278 L 2545.742236304251 105.18166018683753 L 2545.6899524023634 105.29533417510305 L 2545.6351565501514 105.40876613177045 L 2545.5778542271555 105.52194471373859 L 2545.5180511635594 105.6348586032436 L 2545.4557533396205 105.74749650899061 L 2545.3909669850686 105.85984716728291 L 2545.323698578485 105.97189934314831 L 2545.2539548466552 106.08364183146257 L 2545.181742763894 106.19506345807001 L 2545.1070695513486 106.30615308090081 L 2545.029942676279 106.41689959108525 L 2544.9503698513086 106.52729191406462 L 2544.8683590336523 106.6373190106986 L 2544.783918424325 106.74696987836923 L 2544.697056467316 106.8562335520811 L 2544.6077818487497 106.9650991055579 L 2544.516103496013 107.07355565233499 L 2544.4220305768645 107.1815923468481 L 2544.3255724985183 107.28919838551779 L 2544.2267389067015 107.39636300782988 L 2544.1255396846914 107.50307549741142 L 2544.021984952325 107.60932518310238 L 2543.91608506499 107.71510144002276 L 2543.807850612587 107.82039369063499 L 2543.69729241847 107.92519140580175 L 2543.5844215383677 108.02948410583888 L 2543.469249259273 108.13326136156326 L 2543.3517870983183 108.23651279533581 L 2543.2320468016214 108.3392280820992 L 2543.1100403431124 108.44139695041032 L 2542.9857799233355 108.54300918346752 L 2542.8592779682294 108.64405462013215 L 2542.7305471278837 108.74452315594476 L 2542.599600275276 108.84440474413547 L 2542.466450504981 108.94368939662871 L 2542.3311111318662 109.04236718504197 L 2542.193595689755 109.14042824167863 L 2542.053917930078 109.23786276051476 L 2541.9120918204944 109.33466099817964 L 2541.7681315434966 109.43081327493022 L 2541.622051494993 109.52630997561889 L 2541.4738662828663 109.62114155065521 L 2541.323590725514 109.71529851696069 L 2541.171239850367 109.80877145891714 L 2541.0168288923855 109.90155102930828 L 2540.860373292537 109.99362795025439 L 2540.7018886962514 110.0849930141401 L 2540.5413909518556 110.17563708453515 L 2540.3788961089904 110.26555109710806 L 2540.2144204170045 110.35472606053247 L 2540.0479803233306 110.44315305738637 L 2539.8795924718393 110.53082324504376 L 2539.709273701175 110.61772785655893 L 2539.5370410430733 110.70385820154316 L 2539.362911720656 110.7892056670337 L 2539.1869031467104 110.87376171835515 L 2539.0090329219474 110.95751789997283 L 2538.8293188332414 111.04046583633837 L 2538.647778851851 111.12259723272727 L 2538.4644311316233 111.20390387606834 L 2538.2792940071777 111.28437763576497 L 2538.0923859920717 111.36401046450827 L 2537.9037257769523 111.44279439908172 L 2537.7133322276827 111.52072156115753 L 2537.5212243834594 111.59778415808442 L 2537.327421454907 111.67397448366692 L 2537.131942822157 111.74928491893597 L 2536.934808032909 111.82370793291078 L 2536.7360368004784 111.897236083352 L 2536.5356490018225 111.96986201750583 L 2536.3336646755542 112.04157847283939 L 2536.130104019938 112.11237827776692 L 2535.9249873908693 112.18225435236691 L 2535.718335299841 112.25119970909014 L 2535.5101684118886 112.31920745345839 L 2535.300507543529 112.38627078475389 L 2535.089373660673 112.45238299669941 L 2534.876787876534 112.51753747812883 L 2534.662771449512 112.58172771364832 L 2534.4473457810727 112.64494728428781 L 2534.230532413603 112.70718986814293 L 2534.0123530282585 112.76844924100715 L 2533.7928294427966 112.82871927699422 L 2533.571983609392 112.8879939491508 L 2533.349837612445 112.94626733005906 L 2533.1264136663694 113.00353359242945 L 2532.901734113374 113.05978700968346 L 2532.675821421227 113.11502195652626 L 2532.4486981810087 113.16923290950919 L 2532.220387104855 113.22241444758212 L 2531.990911023682 113.27456125263556 L 2531.7602928849074 113.32566811003247 L 2531.5285557501525 113.37572990912969 L 2531.2957227929382 113.42474164378902 L 2531.0618172963655 113.47269841287786 L 2530.8268626507893 113.51959542075925 L 2530.5908823514787 113.56542797777148 L 2530.353899996267 113.61019150069704 L 2530.115939283192 113.65388151322097 L 2529.877024008126 113.69649364637839 L 2529.637178062399 113.7380236389915 L 2529.3964254304046 113.77846733809567 L 2529.154790187206 113.81782069935467 L 2528.9122964961252 113.85607978746518 L 2528.66896860633 113.89324077655026 L 2528.424830850406 113.92929995054197 L 2528.1799076419265 113.96425370355298 L 2527.934223473007 113.9980985402371 L 2527.6878029118607 114.03083107613887 L 2527.4406706003374 114.06244803803197 L 2527.192851251463 114.09294626424656 L 2526.9443696469652 114.12232270498545 L 2526.695250634798 114.15057442262903 L 2526.4455191266547 114.17769859202907 L 2526.1952000954784 114.20369250079126 L 2525.944318572963 114.22855354954636 L 2525.6928996470524 114.25227925221023 L 2525.440968459429 114.27486723623237 L 2525.188550203002 114.2963152428332 L 2524.9356701193865 114.31662112722992 L 2524.6823534963805 114.33578285885103 L 2524.428625665435 114.35379852153933 L 2524.1745119991215 114.37066631374357 L 2523.9200379085946 114.38638454869857 L 2523.665228841052 114.40095165459395 L 2523.410110277188 114.41436617473126 L 2523.1547077286455 114.42662676766965 L 2522.899046735468 114.43773220736004 L 2522.6431528635403 114.44768138326774 L 2522.3870517020373 114.45647330048342 L 2522.1307688608613 114.46410707982272 L 2521.874329968083 114.47058195791405 L 2521.617760667378 114.47589728727498 L 2521.3610866154627 114.48005253637703 L 2521.104333479528 114.48304728969873 L 2520.8475269346736 114.48488124776728 L 2520.5906926613407 114.48555422718835 L 2520.3338563427415 114.4850661606646 L 2520.0770436622947 114.48341709700226 L 2519.820280301054 114.48060720110631 L 2519.563591935141 114.47663675396402 L 2519.3070042331797 114.4715061526168 L 2519.0505428537253 114.46521591012046 L 2518.7942334427025 114.45776665549408 L 2518.538101630839 114.44915913365686 L 2518.282173031102 114.43939420535384 L 2518.026473236139 114.42847284706968 L 2517.7710278157156 114.41639615093115 L 2517.515862314161 114.40316532459778 L 2517.2610022478134 114.38878169114116 L 2517.0064731024663 114.37324668891269 L 2516.752300330823 114.3565618713996 L 2516.498509349948 114.33872890706978 L 2516.245125538728 114.31974957920477 L 2515.992174235334 114.29962578572156 L 2515.739680734684 114.27835953898271 L 2515.4876702859187 114.2559529655952 L 2515.236168089873 114.23240830619767 L 2514.985199296556 114.20772791523646 L 2514.734789002639 114.18191426073008 L 2514.484962248942 114.15496992402248 L 2514.235744017932 114.12689759952488 L 2513.987159231225 114.09770009444634 L 2513.739232747093 114.06738032851301 L 2513.4919893579768 114.03594133367625 L 2513.2454537880094 114.00338625380931 L 2512.9996506905422 113.96971834439309 L 2512.754604645681 113.93494097219045 L 2512.510340157826 113.89905761490962 L 2512.266881653221 113.86207186085645 L 2512.0242534775152 113.8239874085755 L 2511.782479893323 113.78480806648028 L 2511.5415850778018 113.74453775247234 L 2511.3015931202326 113.70318049354952 L 2511.0625280196105 113.66074042540326 L 2510.824413682247 113.61722179200501 L 2510.587273919377 113.57262894518182 L 2510.351132444779 113.52696634418123 L 2510.116012872404 113.4802385552253 L 2509.881938714014 113.43245025105395 L 2509.648933376828 113.3836062104578 L 2509.4170201611873 113.33371131780021 L 2509.1862222582195 113.28277056252885 L 2508.956562747522 113.23078903867682 L 2508.7280645948554 113.17777194435315 L 2508.5007506498446 113.12372458122314 L 2508.2746436436937 113.06865235397802 L 2508.049766186916 113.01256076979465 L 2507.8261407670684 112.95545543778468 L 2507.603789746508 112.89734206843374 L 2507.382735360151 112.83822647303033 L 2507.1629997132513 112.77811456308474 L 2506.944604779191 112.71701234973787 L 2506.727572397282 112.65492594316012 L 2506.511924270581 112.59186155194043 L 2506.2976819637206 112.52782548246535 L 2506.0848669007537 112.46282413828848 L 2505.873500363009 112.39686401949005 L 2505.663603486964 112.329951722027 L 2505.455197262131 112.26209393707329 L 2505.24830252896 112.19329745035088 L 2505.042939976751 112.12356914145111 L 2504.839130141588 112.05291598314678 L 2504.6368934042853 111.98134504069482 L 2504.4362499883478 111.90886347112983 L 2504.2372199579495 111.83547852254839 L 2504.039823215928 111.76119753338418 L 2503.844079501793 111.68602793167423 L 2503.650008389753 111.60997723431606 L 2503.4576292867573 111.53305304631604 L 2503.2669614305555 111.45526306002887 L 2503.0780238877746 111.37661505438834 L 2502.8908355520116 111.29711689412949 L 2502.705415141944 111.21677652900208 L 2502.521781199458 111.13560199297568 L 2502.339952087795 111.05360140343625 L 2502.1599459897147 110.97078296037441 L 2501.981780905677 110.88715494556546 L 2501.805474652042 110.80272572174117 L 2501.6310448592876 110.71750373175358 L 2501.458508970248 110.63149749773066 L 2501.2878842383684 110.54471562022415 L 2501.11918772598 110.45716677734949 L 2500.9524363025926 110.36885972391799 L 2500.7876466432103 110.27980329056143 L 2500.6248352266616 110.1900063828489 L 2500.4640183339525 110.09947798039637 L 2500.3052120466386 110.00822713596862 L 2500.148432245215 109.91626297457408 L 2499.993694607533 109.82359469255222 L 2499.841014607226 109.73023155665405 L 2499.690407512168 109.63618290311534 L 2499.5418883829416 109.54145813672307 L 2499.395472071337 109.44606672987494 L 2499.2511732188627 109.35001822163215 L 2499.1090062552844 109.25332221676548 L 2498.968985397179 109.15598838479485 L 2498.831124646517 109.05802645902233 L 2498.695437789257 108.95944623555886 L 2498.5619383939734 108.86025757234465 L 2498.4306398104927 108.76047038816336 L 2498.3015551685653 108.66009466165023 L 2498.1746973765466 108.5591404302943 L 2498.050079120111 108.45761778943458 L 2497.92771286098 108.35553689125052 L 2497.8076108356777 108.25290794374689 L 2497.6897850543064 108.14974120973291 L 2497.5742472993456 108.04604700579603 L 2497.4610091244754 107.9418357012702 L 2497.350081853418 107.83711771719905 L 2497.241476578809 107.73190352529372 L 2497.1352041610844 107.62620364688571 L 2497.0312752273985 107.52002865187481 L 2496.9297001705568 107.41338915767201 L 2496.8304891479816 107.30629582813788 L 2496.733652080691 107.19875937251612 L 2496.6391986523126 107.09079054436268 L 2496.54713830811 106.98240014047042 L 2496.45748025404 106.87359899978938 L 2496.3702334558348 106.76439800234296 L 2496.2854066381005 106.65480806813993 L 2496.203008283448 106.54484015608236 L 2496.123046631645 106.43450526286983 L 2496.0455296787895 106.32381442189971 L 2495.9704651765123 106.21277870216386 L 2495.8978606312007 106.10140920714173 L 2495.8277233032495 105.98971707368999 L 2495.7600602063326 105.87771347092892 L 2495.694878106703 105.76540959912549 L 2495.6321835225167 105.65281668857324 L 2495.57198272318 105.53994599846945 L 2495.5142817287224 105.42680881578903 L 2495.4590863091953 105.313416454156 L 2495.406401984095 105.199780252712 L 2495.3562340218095 105.0859115749825 L 2495.308587439094 104.97182180774038 L 2495.2634670005664 104.85752235986729 L 2495.220877218233 104.74302466121276 L 2495.1808223510366 104.62834016145125 L 2495.143306404431 104.51348032893715 L 2495.108333129979 104.39845664955801 L 2495.0759060249793 104.28328062558592 L 2495.0460283321154 104.16796377452728 L 2495.018703039131 104.05251762797111 L 2494.9939328785335 103.93695373043586 L 2494.971720327318 103.82128363821498 L 2494.952067606721 103.7055189182213 L 2494.9349766819983 103.58967114683034 L 2494.920449262228 103.47375190872272 L 2494.90848680014 103.35777279572564 L 2494.8990904919706 103.24174540565375 L 2494.892261277343 103.12568134114936 L 2494.8879998391726 103.00959220852222 L 2494.8863066035997 102.89348961658884" stroke-miterlimit="10" stroke-width="2.990598758" stroke-dasharray=""/></g><g><g/><text fill="black" stroke="none" font-family="sans-serif" font-size="12pt" font-style="normal" font-weight="normal" text-decoration="normal" x="2509.4569585833333" y="133.36151359872727" text-anchor="start" dominant-baseline="alphabetic" xml:space="preserve">DB</text></g></g><g><g><text fill="black" stroke="none" font-family="sans-serif" font-size="17.454545454545453pt" font-style="normal" font-weight="normal" text-decoration="normal" x="1227.693359375" y="26.547561167272725" text-anchor="start" dominant-baseline="alphabetic" xml:space="preserve">Booking a ride flow</text></g><g><rect fill="white" stroke="none" x="99.9798212233333" y="173.82255561872728" width="68.42596472" height="22.86928462"/><rect fill="white" stroke="none" x="99.9798212233333" y="173.82255561872728" width="81.75408972" height="22.86928462"/><rect fill="white" stroke="none" x="99.9798212233333" y="191.41431301872728" width="45.277527219999996" height="22.86928462"/><rect fill="white" stroke="none" x="99.9798212233333" y="191.41431301872728" width="228.49627722" height="22.86928462"/><rect fill="white" stroke="none" x="99.9798212233333" y="209.0060704187273" width="292.58221472" height="22.86928462"/><text fill="black" stroke="none" font-family="sans-serif" font-size="12pt" font-style="normal" font-weight="bold" text-decoration="normal" x="102.6185848333333" y="189.6551372787273" text-anchor="start" dominant-baseline="alphabetic" xml:space="preserve">Headers</text><text fill="black" stroke="none" font-family="sans-serif" font-size="12pt" font-style="normal" font-weight="normal" text-decoration="normal" x="165.7670223333333" y="189.6551372787273" text-anchor="start" dominant-baseline="alphabetic" xml:space="preserve">: Jwt token</text><text fill="black" stroke="none" font-family="sans-serif" font-size="12pt" font-style="normal" font-weight="bold" text-decoration="normal" x="102.6185848333333" y="207.2468946787273" text-anchor="start" dominant-baseline="alphabetic" xml:space="preserve">Body</text><text fill="black" stroke="none" font-family="sans-serif" font-size="12pt" font-style="normal" font-weight="normal" text-decoration="normal" x="142.6185848333333" y="207.2468946787273" text-anchor="start" dominant-baseline="alphabetic" xml:space="preserve">: customer_id, current_location,</text><text fill="black" stroke="none" font-family="sans-serif" font-size="12pt" font-style="normal" font-weight="normal" text-decoration="normal" x="102.6185848333333" y="224.8386520787273" text-anchor="start" dominant-baseline="alphabetic" xml:space="preserve">destination_location, transportation_type</text></g><g><path fill="none" stroke="black" paint-order="fill stroke markers" d=" M 79.1629083 231.87535503872726 L 398.8950686073333 231.87535503872726" stroke-miterlimit="10" stroke-width="1.4659797833333332" stroke-dasharray=""/><g transform="translate(413.37894886666663,231.87535503872726) translate(-413.37894886666663,-231.87535503872726)"><path fill="black" stroke="none" paint-order="stroke fill markers" d=" M 398.7191510333333 224.54545612206059 L 413.37894886666663 231.87535503872726 L 398.7191510333333 239.20525395539394 Z"/></g></g><g><rect fill="white" stroke="none" x="434.1958617899999" y="305.76073611872727" width="219.60565222" height="22.86928462"/><rect fill="white" stroke="none" x="434.1958617899999" y="323.3524935187273" width="292.58221472" height="22.86928462"/><text fill="black" stroke="none" font-family="sans-serif" font-size="12pt" font-style="normal" font-weight="normal" text-decoration="normal" x="436.83462539999994" y="321.5933177787273" text-anchor="start" dominant-baseline="alphabetic" xml:space="preserve">customer_id, current_location,</text><text fill="black" stroke="none" font-family="sans-serif" font-size="12pt" font-style="normal" font-weight="normal" text-decoration="normal" x="436.83462539999994" y="339.1850751787273" text-anchor="start" dominant-baseline="alphabetic" xml:space="preserve">destination_location, transportation_type</text></g><g><path fill="none" stroke="black" paint-order="fill stroke markers" d=" M 413.37894886666663 346.22177813872725 L 733.1111091739999 346.22177813872725" stroke-miterlimit="10" stroke-width="1.4659797833333332" stroke-dasharray=""/><g transform="translate(747.5949894333332,346.22177813872725) translate(-747.5949894333332,-346.22177813872725)"><path fill="black" stroke="none" paint-order="stroke fill markers" d=" M 732.9351915999999 338.8918792220606 L 747.5949894333332 346.22177813872725 L 732.9351915999999 353.5516770553939 Z"/></g></g><g><rect fill="white" stroke="none" x="861.7869023566666" y="372.60941423872725" width="214.24627722" height="22.86928462"/><text fill="black" stroke="none" font-family="sans-serif" font-size="12pt" font-style="normal" font-weight="normal" text-decoration="normal" x="864.4256659666665" y="388.44199589872727" text-anchor="start" dominant-baseline="alphabetic" xml:space="preserve">Get customer by customer_id</text></g><g><path fill="none" stroke="black" paint-order="fill stroke markers" d=" M 747.5949894333332 395.4786988587272 L 1175.7412122406665 395.4786988587272" stroke-miterlimit="10" stroke-width="1.4659797833333332" stroke-dasharray=""/><g transform="translate(1190.2250924999998,395.4786988587272) translate(-1190.2250924999998,-395.4786988587272)"><path fill="black" stroke="none" paint-order="stroke fill markers" d=" M 1175.5652946666664 388.1487999420606 L 1190.2250924999998 395.4786988587272 L 1175.5652946666664 402.8085977753939 Z"/></g></g><g><rect fill="white" stroke="none" x="1681.1221838066665" y="421.86633495872724" width="348.55096472" height="22.86928462"/><rect fill="white" stroke="none" x="1681.1221838066665" y="439.45809235872724" width="213.36346472" height="22.86928462"/><text fill="black" stroke="none" font-family="sans-serif" font-size="12pt" font-style="normal" font-weight="normal" text-decoration="normal" x="1683.7609474166666" y="437.69891661872725" text-anchor="start" dominant-baseline="alphabetic" xml:space="preserve">Get customer with id = customer_id and status =</text><text fill="black" stroke="none" font-family="sans-serif" font-size="12pt" font-style="normal" font-weight="normal" text-decoration="normal" x="1683.7609474166666" y="455.29067401872726" text-anchor="start" dominant-baseline="alphabetic" xml:space="preserve">FREE and lock that customer</text></g><g><path fill="none" stroke="black" paint-order="fill stroke markers" d=" M 1190.2250924999998 462.3273769787272 L 2506.0863595739997 462.3273769787272" stroke-miterlimit="10" stroke-width="1.4659797833333332" stroke-dasharray=""/><g transform="translate(2520.5702398333333,462.3273769787272) translate(-2520.5702398333333,-462.3273769787272)"><path fill="black" stroke="none" paint-order="stroke fill markers" d=" M 2505.910442 454.99747806206057 L 2520.5702398333333 462.3273769787272 L 2505.910442 469.65727589539387 Z"/></g></g><g><rect fill="white" stroke="none" x="1211.0420054233332" y="488.71501307872717" width="239.58221472" height="22.86928462"/><text fill="black" stroke="none" font-family="sans-serif" font-size="12pt" font-style="normal" font-weight="normal" text-decoration="normal" x="1213.6807690333333" y="504.5475947387272" text-anchor="start" dominant-baseline="alphabetic" xml:space="preserve">Set customer status = BOOKING</text></g><g><path fill="none" stroke="black" paint-order="fill stroke markers" d=" M 1190.2250924999998 511.5842976987272 L 1260.5921220999999 511.5842976987272 L 1260.5921220999999 534.4535823187272 L 1204.7089727593332 534.4535823187272" stroke-miterlimit="10" stroke-width="1.4659797833333332" stroke-dasharray=""/><g transform="translate(1190.2250924999998,534.4535823187272) translate(-1190.2250924999998,-534.4535823187272)"><path fill="black" stroke="none" paint-order="stroke fill markers" d=" M 1204.8848903333333 527.1236834020605 L 1190.2250924999998 534.4535823187272 L 1204.8848903333333 541.7834812353939 Z"/></g></g><g><rect fill="white" stroke="none" x="1791.3995275566665" y="560.8412184187272" width="127.99627722" height="22.86928462"/><text fill="black" stroke="none" font-family="sans-serif" font-size="12pt" font-style="normal" font-weight="normal" text-decoration="normal" x="1794.0382911666666" y="576.6738000787271" text-anchor="start" dominant-baseline="alphabetic" xml:space="preserve">release customer</text></g><g><path fill="none" stroke="black" paint-order="fill stroke markers" d=" M 1190.2250924999998 583.7105030387272 L 2506.0863595739997 583.7105030387272" stroke-miterlimit="10" stroke-width="1.4659797833333332" stroke-dasharray=""/><g transform="translate(2520.5702398333333,583.7105030387272) translate(-2520.5702398333333,-583.7105030387272)"><path fill="black" stroke="none" paint-order="stroke fill markers" d=" M 2505.910442 576.3806041220605 L 2520.5702398333333 583.7105030387272 L 2505.910442 591.0404019553939 Z"/></g></g><g><rect fill="white" stroke="none" x="768.4119023566666" y="610.0981391387272" width="400.99627722" height="22.86928462"/><text fill="black" stroke="none" font-family="sans-serif" font-size="12pt" font-style="normal" font-weight="normal" text-decoration="normal" x="771.0506659666665" y="625.9307207987272" text-anchor="start" dominant-baseline="alphabetic" xml:space="preserve">Customer with id = customer_id and status = BOOKING</text></g><g><path fill="none" stroke="black" paint-order="fill stroke markers" d=" M 1190.2250924999998 632.9674237587273 L 762.0788696926666 632.9674237587273" stroke-miterlimit="10" stroke-width="1.4659797833333332" stroke-dasharray=""/><g transform="translate(747.5949894333332,632.9674237587273) translate(-747.5949894333332,-632.9674237587273)"><path fill="black" stroke="none" paint-order="stroke fill markers" d=" M 762.2547872666665 625.6375248420605 L 747.5949894333332 632.9674237587273 L 762.2547872666665 640.297322675394 Z"/></g></g><g><rect fill="white" stroke="none" x="768.4119023566666" y="706.8528048387273" width="208.90252722" height="22.86928462"/><text fill="black" stroke="none" font-family="sans-serif" font-size="12pt" font-style="normal" font-weight="normal" text-decoration="normal" x="771.0506659666665" y="722.6853864987272" text-anchor="start" dominant-baseline="alphabetic" xml:space="preserve">Init driver blacklist if not exist</text></g><g><path fill="none" stroke="black" paint-order="fill stroke markers" d=" M 747.5949894333332 729.7220894587272 L 817.9620190333333 729.7220894587272 L 817.9620190333333 752.5913740787272 L 762.0788696926666 752.5913740787272" stroke-miterlimit="10" stroke-width="1.4659797833333332" stroke-dasharray=""/><g transform="translate(747.5949894333332,752.5913740787272) translate(-747.5949894333332,-752.5913740787272)"><path fill="black" stroke="none" paint-order="stroke fill markers" d=" M 762.2547872666665 745.2614751620605 L 747.5949894333332 752.5913740787272 L 762.2547872666665 759.9212729953939 Z"/></g></g><g><rect fill="white" stroke="none" x="1321.7589815066665" y="778.9790101787271" width="265.86346472" height="22.86928462"/><rect fill="white" stroke="none" x="1321.7589815066665" y="796.5707675787271" width="297.02752722" height="22.86928462"/><rect fill="white" stroke="none" x="1321.7589815066665" y="814.1625249787271" width="296.96502722" height="22.86928462"/><rect fill="white" stroke="none" x="1321.7589815066665" y="831.7542823787271" width="196.91033972" height="22.86928462"/><text fill="black" stroke="none" font-family="sans-serif" font-size="12pt" font-style="normal" font-weight="normal" text-decoration="normal" x="1324.3977451166666" y="794.811591838727" text-anchor="start" dominant-baseline="alphabetic" xml:space="preserve">Send [customer_id, current_location,</text><text fill="black" stroke="none" font-family="sans-serif" font-size="12pt" font-style="normal" font-weight="normal" text-decoration="normal" x="1324.3977451166666" y="812.4033492387271" text-anchor="start" dominant-baseline="alphabetic" xml:space="preserve">destination_location, transportation_type,</text><text fill="black" stroke="none" font-family="sans-serif" font-size="12pt" font-style="normal" font-weight="normal" text-decoration="normal" x="1324.3977451166666" y="829.9951066387271" text-anchor="start" dominant-baseline="alphabetic" xml:space="preserve">blacklist_driver_ids] to priority queue with</text><text fill="black" stroke="none" font-family="sans-serif" font-size="12pt" font-style="normal" font-weight="normal" text-decoration="normal" x="1324.3977451166666" y="847.5868640387271" text-anchor="start" dominant-baseline="alphabetic" xml:space="preserve">priority = current_priority++</text></g><g><path fill="none" stroke="black" paint-order="fill stroke markers" d=" M 747.5949894333332 854.6235669987271 L 2178.4666205406666 854.6235669987271" stroke-miterlimit="10" stroke-width="1.4659797833333332" stroke-dasharray=""/><g transform="translate(2192.9505008,854.6235669987271) translate(-2192.9505008,-854.6235669987271)"><path fill="black" stroke="none" paint-order="stroke fill markers" d=" M 2178.2907029666667 847.2936680820604 L 2192.9505008 854.6235669987271 L 2178.2907029666667 861.9534659153938 Z"/></g></g><g><rect fill="white" stroke="none" x="1477.5982481566666" y="881.0112030987272" width="694.53533972" height="22.86928462"/><text fill="black" stroke="none" font-family="sans-serif" font-size="12pt" font-style="normal" font-weight="normal" text-decoration="normal" x="1480.2370117666667" y="896.8437847587271" text-anchor="start" dominant-baseline="alphabetic" xml:space="preserve">Get [customer_id, current_location, destination_location, transportation_type, blacklist_driver_ids]</text></g><g><path fill="none" stroke="black" paint-order="fill stroke markers" d=" M 2192.9505008 903.8804877187272 L 1471.2652154926666 903.8804877187272" stroke-miterlimit="10" stroke-width="1.4659797833333332" stroke-dasharray=""/><g transform="translate(1456.7813352333333,903.8804877187272) translate(-1456.7813352333333,-903.8804877187272)"><path fill="black" stroke="none" paint-order="stroke fill markers" d=" M 1471.4411330666667 896.5505888020605 L 1456.7813352333333 903.8804877187272 L 1471.4411330666667 911.2103866353939 Z"/></g></g><g><rect fill="white" stroke="none" x="1826.4120239233332" y="930.2681238187272" width="263.62908972" height="22.86928462"/><rect fill="white" stroke="none" x="1826.4120239233332" y="947.8598812187272" width="312.57440222" height="22.86928462"/><rect fill="white" stroke="none" x="1826.4120239233332" y="965.4516386187272" width="314.28533972" height="22.86928462"/><rect fill="white" stroke="none" x="1826.4120239233332" y="983.0433960187272" width="324.52752722" height="22.86928462"/><rect fill="white" stroke="none" x="1826.4120239233332" y="1000.6351534187272" width="76.41815222" height="22.86928462"/><text fill="black" stroke="none" font-family="sans-serif" font-size="12pt" font-style="normal" font-weight="normal" text-decoration="normal" x="1829.0507875333333" y="946.1007054787271" text-anchor="start" dominant-baseline="alphabetic" xml:space="preserve">Get driver with transportation_type =</text><text fill="black" stroke="none" font-family="sans-serif" font-size="12pt" font-style="normal" font-weight="normal" text-decoration="normal" x="1829.0507875333333" y="963.6924628787272" text-anchor="start" dominant-baseline="alphabetic" xml:space="preserve">transportation_type and status = FREE and</text><text fill="black" stroke="none" font-family="sans-serif" font-size="12pt" font-style="normal" font-weight="normal" text-decoration="normal" x="1829.0507875333333" y="981.2842202787272" text-anchor="start" dominant-baseline="alphabetic" xml:space="preserve">dis(pos(driver), current_location) = MIN and</text><text fill="black" stroke="none" font-family="sans-serif" font-size="12pt" font-style="normal" font-weight="normal" text-decoration="normal" x="1829.0507875333333" y="998.8759776787272" text-anchor="start" dominant-baseline="alphabetic" xml:space="preserve">driver_id not in (blacklist_driver_ids) and lock</text><text fill="black" stroke="none" font-family="sans-serif" font-size="12pt" font-style="normal" font-weight="normal" text-decoration="normal" x="1829.0507875333333" y="1016.4677350787272" text-anchor="start" dominant-baseline="alphabetic" xml:space="preserve">that driver</text></g><g><path fill="none" stroke="black" paint-order="fill stroke markers" d=" M 1456.7813352333333 1023.5044380387271 L 2506.0863595739997 1023.5044380387271" stroke-miterlimit="10" stroke-width="1.4659797833333332" stroke-dasharray=""/><g transform="translate(2520.5702398333333,1023.5044380387271) translate(-2520.5702398333333,-1023.5044380387271)"><path fill="black" stroke="none" paint-order="stroke fill markers" d=" M 2505.910442 1016.1745391220604 L 2520.5702398333333 1023.5044380387271 L 2505.910442 1030.8343369553938 Z"/></g></g><g><rect fill="white" stroke="none" x="1477.5982481566666" y="1097.389819118727" width="235.15252722" height="22.86928462"/><text fill="black" stroke="none" font-family="sans-serif" font-size="12pt" font-style="normal" font-weight="normal" text-decoration="normal" x="1480.2370117666667" y="1113.222400778727" text-anchor="start" dominant-baseline="alphabetic" xml:space="preserve">Update driver status = BOOKED</text></g><g><path fill="none" stroke="black" paint-order="fill stroke markers" d=" M 1456.7813352333333 1120.2591037387272 L 1527.1483648333333 1120.2591037387272 L 1527.1483648333333 1143.128388358727 L 1471.2652154926666 1143.128388358727" stroke-miterlimit="10" stroke-width="1.4659797833333332" stroke-dasharray=""/><g transform="translate(1456.7813352333333,1143.128388358727) translate(-1456.7813352333333,-1143.128388358727)"><path fill="black" stroke="none" paint-order="stroke fill markers" d=" M 1471.4411330666667 1135.7984894420604 L 1456.7813352333333 1143.128388358727 L 1471.4411330666667 1150.4582872753938 Z"/></g></g><g><rect fill="white" stroke="none" x="1744.8482481566666" y="1169.516024458727" width="160.03533972" height="22.86928462"/><text fill="black" stroke="none" font-family="sans-serif" font-size="12pt" font-style="normal" font-weight="normal" text-decoration="normal" x="1747.4870117666667" y="1185.348606118727" text-anchor="start" dominant-baseline="alphabetic" xml:space="preserve">Return founded driver</text></g><g><path fill="none" stroke="black" paint-order="fill stroke markers" d=" M 1456.7813352333333 1192.385309078727 L 2178.4666205406666 1192.385309078727" stroke-miterlimit="10" stroke-width="1.4659797833333332" stroke-dasharray=""/><g transform="translate(2192.9505008,1192.385309078727) translate(-2192.9505008,-1192.385309078727)"><path fill="black" stroke="none" paint-order="stroke fill markers" d=" M 2178.2907029666667 1185.0554101620603 L 2192.9505008 1192.385309078727 L 2178.2907029666667 1199.7152079953937 Z"/></g></g><g><rect fill="white" stroke="none" x="1783.5396544066666" y="1266.270690158727" width="82.65252722" height="22.86928462"/><text fill="black" stroke="none" font-family="sans-serif" font-size="12pt" font-style="normal" font-weight="normal" text-decoration="normal" x="1786.1784180166667" y="1282.1032718187269" text-anchor="start" dominant-baseline="alphabetic" xml:space="preserve">Return null</text></g><g><path fill="none" stroke="black" paint-order="fill stroke markers" d=" M 1456.7813352333333 1289.1399747787268 L 2178.4666205406666 1289.1399747787268" stroke-miterlimit="10" stroke-width="1.4659797833333332" stroke-dasharray=""/><g transform="translate(2192.9505008,1289.1399747787268) translate(-2192.9505008,-1289.1399747787268)"><path fill="black" stroke="none" paint-order="stroke fill markers" d=" M 2178.2907029666667 1281.81007586206 L 2192.9505008 1289.1399747787268 L 2178.2907029666667 1296.4698736953935 Z"/></g></g><g><rect fill="white" stroke="none" x="1410.2707002566665" y="1341.9152469787268" width="120.00408972" height="22.86928462"/><text fill="black" stroke="none" font-family="sans-serif" font-size="12pt" font-style="normal" font-weight="normal" text-decoration="normal" x="1412.9094638666666" y="1357.7478286387268" text-anchor="start" dominant-baseline="alphabetic" xml:space="preserve">Get found driver</text></g><g><path fill="none" stroke="black" paint-order="fill stroke markers" d=" M 2192.9505008 1364.7845315987267 L 762.0788696926666 1364.7845315987267" stroke-miterlimit="10" stroke-width="1.4659797833333332" stroke-dasharray=""/><g transform="translate(747.5949894333332,1364.7845315987267) translate(-747.5949894333332,-1364.7845315987267)"><path fill="black" stroke="none" paint-order="stroke fill markers" d=" M 762.2547872666665 1357.45463268206 L 747.5949894333332 1364.7845315987267 L 762.2547872666665 1372.1144305153935 Z"/></g></g><g><rect fill="white" stroke="none" x="919.2251799733334" y="1438.6699126787269" width="325.66815222" height="22.86928462"/><rect fill="white" stroke="none" x="919.2251799733334" y="1456.2616700787269" width="365.92596472" height="22.86928462"/><rect fill="white" stroke="none" x="919.2251799733334" y="1473.8534274787269" width="230.26971472" height="22.86928462"/><text fill="black" stroke="none" font-family="sans-serif" font-size="12pt" font-style="normal" font-weight="normal" text-decoration="normal" x="921.8639435833334" y="1454.5024943387268" text-anchor="start" dominant-baseline="alphabetic" xml:space="preserve">Wait for founded driver to confirm (drivers will</text><text fill="black" stroke="none" font-family="sans-serif" font-size="12pt" font-style="normal" font-weight="normal" text-decoration="normal" x="921.8639435833334" y="1472.0942517387268" text-anchor="start" dominant-baseline="alphabetic" xml:space="preserve">polling and if they see that there status = BOOKED</text><text fill="black" stroke="none" font-family="sans-serif" font-size="12pt" font-style="normal" font-weight="normal" text-decoration="normal" x="921.8639435833334" y="1489.6860091387268" text-anchor="start" dominant-baseline="alphabetic" xml:space="preserve">they can either confirm or deny)</text></g><g><path fill="none" stroke="black" paint-order="fill stroke markers" d=" M 747.5949894333332 1496.7227120987268 L 1442.297454974 1496.7227120987268" stroke-miterlimit="10" stroke-width="1.4659797833333332" stroke-dasharray=""/><g transform="translate(1456.7813352333333,1496.7227120987268) translate(-1456.7813352333333,-1496.7227120987268)"><path fill="black" stroke="none" paint-order="stroke fill markers" d=" M 1442.1215373999999 1489.39281318206 L 1456.7813352333333 1496.7227120987268 L 1442.1215373999999 1504.0526110153935 Z"/></g></g><g><rect fill="white" stroke="none" x="979.427627615" y="1570.6080931787267" width="613.60565222" height="22.86928462"/><text fill="black" stroke="none" font-family="sans-serif" font-size="12pt" font-style="normal" font-weight="normal" text-decoration="normal" x="982.066391225" y="1586.4406748387266" text-anchor="start" dominant-baseline="alphabetic" xml:space="preserve">Create new transaction [customer_id, driver_id, current_location, destination_location]</text></g><g><path fill="none" stroke="black" paint-order="fill stroke markers" d=" M 747.5949894333332 1593.4773777987266 L 1810.3820377573334 1593.4773777987266" stroke-miterlimit="10" stroke-width="1.4659797833333332" stroke-dasharray=""/><g transform="translate(1824.8659180166667,1593.4773777987266) translate(-1824.8659180166667,-1593.4773777987266)"><path fill="black" stroke="none" paint-order="stroke fill markers" d=" M 1810.2061201833333 1586.1474788820599 L 1824.8659180166667 1593.4773777987266 L 1810.2061201833333 1600.8072767153933 Z"/></g></g><g><rect fill="white" stroke="none" x="1865.915252815" y="1619.8650138987266" width="613.60565222" height="22.86928462"/><text fill="black" stroke="none" font-family="sans-serif" font-size="12pt" font-style="normal" font-weight="normal" text-decoration="normal" x="1868.554016425" y="1635.6975955587266" text-anchor="start" dominant-baseline="alphabetic" xml:space="preserve">Create new transaction [customer_id, driver_id, current_location, destination_location]</text></g><g><path fill="none" stroke="black" paint-order="fill stroke markers" d=" M 1824.8659180166667 1642.7342985187265 L 2506.0863595739997 1642.7342985187265" stroke-miterlimit="10" stroke-width="1.4659797833333332" stroke-dasharray=""/><g transform="translate(2520.5702398333333,1642.7342985187265) translate(-2520.5702398333333,-1642.7342985187265)"><path fill="black" stroke="none" paint-order="stroke fill markers" d=" M 2505.910442 1635.4043996020598 L 2520.5702398333333 1642.7342985187265 L 2505.910442 1650.0641974353932 Z"/></g></g><path fill="white" stroke="black" paint-order="fill stroke markers" d=" M 671.3923103233333 1669.1219346187265 L 807.9650868833334 1669.1219346187265 L 823.7976685433333 1684.9545162787265 L 823.7976685433333 1709.5829766387264 L 671.3923103233333 1709.5829766387264 L 671.3923103233333 1669.1219346187265 M 807.9650868833334 1669.1219346187265 L 807.9650868833334 1684.9545162787265 L 823.7976685433333 1684.9545162787265" stroke-miterlimit="10" stroke-width="1.4659797833333332" stroke-dasharray=""/><g><text fill="black" stroke="none" font-family="sans-serif" font-size="12pt" font-style="normal" font-weight="normal" text-decoration="normal" x="696.0207706833332" y="1693.7503949787263" text-anchor="start" dominant-baseline="alphabetic" xml:space="preserve">BREAK LOOP</text></g><g><rect fill="white" stroke="none" x="1011.2954924733334" y="1783.4683577187263" width="181.78533972" height="22.86928462"/><text fill="black" stroke="none" font-family="sans-serif" font-size="12pt" font-style="normal" font-weight="normal" text-decoration="normal" x="1013.9342560833334" y="1799.3009393787263" text-anchor="start" dominant-baseline="alphabetic" xml:space="preserve">Set driver status = FREE</text></g><g><path fill="none" stroke="black" paint-order="fill stroke markers" d=" M 747.5949894333332 1806.3376423387263 L 1442.297454974 1806.3376423387263" stroke-miterlimit="10" stroke-width="1.4659797833333332" stroke-dasharray=""/><g transform="translate(1456.7813352333333,1806.3376423387263) translate(-1456.7813352333333,-1806.3376423387263)"><path fill="black" stroke="none" paint-order="stroke fill markers" d=" M 1442.1215373999999 1799.0077434220595 L 1456.7813352333333 1806.3376423387263 L 1442.1215373999999 1813.667541255393 Z"/></g></g><g><rect fill="white" stroke="none" x="768.4119023566666" y="1832.7252784387263" width="257.82440222" height="22.86928462"/><text fill="black" stroke="none" font-family="sans-serif" font-size="12pt" font-style="normal" font-weight="normal" text-decoration="normal" x="771.0506659666665" y="1848.5578600987262" text-anchor="start" dominant-baseline="alphabetic" xml:space="preserve">Set driver_id to blacklist for this ride</text></g><g><path fill="none" stroke="black" paint-order="fill stroke markers" d=" M 747.5949894333332 1855.5945630587264 L 817.9620190333333 1855.5945630587264 L 817.9620190333333 1878.4638476787263 L 762.0788696926666 1878.4638476787263" stroke-miterlimit="10" stroke-width="1.4659797833333332" stroke-dasharray=""/><g transform="translate(747.5949894333332,1878.4638476787263) translate(-747.5949894333332,-1878.4638476787263)"><path fill="black" stroke="none" paint-order="stroke fill markers" d=" M 762.2547872666665 1871.1339487620596 L 747.5949894333332 1878.4638476787263 L 762.2547872666665 1885.793746595393 Z"/></g></g><path fill="white" stroke="black" paint-order="fill stroke markers" d=" M 656.7360603233333 1904.8514837787263 L 822.6213368833334 1904.8514837787263 L 838.4539185433333 1920.6840654387263 L 838.4539185433333 1945.3125257987263 L 656.7360603233333 1945.3125257987263 L 656.7360603233333 1904.8514837787263 M 822.6213368833334 1904.8514837787263 L 822.6213368833334 1920.6840654387263 L 838.4539185433333 1920.6840654387263" stroke-miterlimit="10" stroke-width="1.4659797833333332" stroke-dasharray=""/><g><text fill="black" stroke="none" font-family="sans-serif" font-size="12pt" font-style="normal" font-weight="normal" text-decoration="normal" x="681.3645206833332" y="1929.479944138726" text-anchor="start" dominant-baseline="alphabetic" xml:space="preserve">CONTINUE LOOP</text></g><g><rect fill="white" stroke="none" x="343.1386227566666" y="2050.8630701987263" width="140.48065222" height="22.86928462"/><text fill="black" stroke="none" font-family="sans-serif" font-size="12pt" font-style="normal" font-weight="normal" text-decoration="normal" x="345.77738636666663" y="2066.6956518587263" text-anchor="start" dominant-baseline="alphabetic" xml:space="preserve">200: transaction_id</text></g><g><path fill="none" stroke="black" paint-order="fill stroke markers" d=" M 747.5949894333332 2073.7323548187264 L 93.64678855933333 2073.7323548187264" stroke-miterlimit="10" stroke-width="1.4659797833333332" stroke-dasharray=""/><g transform="translate(79.1629083,2073.7323548187264) translate(-79.1629083,-2073.7323548187264)"><path fill="black" stroke="none" paint-order="stroke fill markers" d=" M 93.82270613333333 2066.40245590206 L 79.1629083 2073.7323548187264 L 93.82270613333333 2081.062253735393 Z"/></g></g><g><rect fill="white" stroke="none" x="187.5931024733333" y="2147.617735898726" width="117.35565222" height="22.86928462"/><text fill="black" stroke="none" font-family="sans-serif" font-size="12pt" font-style="normal" font-weight="normal" text-decoration="normal" x="190.2318660833333" y="2163.450317558726" text-anchor="start" dominant-baseline="alphabetic" xml:space="preserve">403: Forbidden </text></g><g><path fill="none" stroke="black" paint-order="fill stroke markers" d=" M 413.37894886666663 2170.4870205187262 L 93.64678855933333 2170.4870205187262" stroke-miterlimit="10" stroke-width="1.4659797833333332" stroke-dasharray=""/><g transform="translate(79.1629083,2170.4870205187262) translate(-79.1629083,-2170.4870205187262)"><path fill="black" stroke="none" paint-order="stroke fill markers" d=" M 93.82270613333333 2163.1571216020598 L 79.1629083 2170.4870205187262 L 93.82270613333333 2177.8169194353927 Z"/></g></g><g><g/><path fill="none" stroke="black" paint-order="fill stroke markers" d=" M 17.591757400000006 258.2629911387273 L 2634.916662933333 258.2629911387273 L 2634.916662933333 2196.874656618726 L 17.591757400000006 2196.874656618726 L 17.591757400000006 258.2629911387273 Z" stroke-miterlimit="10" stroke-width="2.5131082" stroke-dasharray=""/><path fill="white" stroke="black" paint-order="fill stroke markers" d=" M 17.591757400000006 258.2629911387273 L 17.591757400000006 279.37310001872726 L 67.71275694121094 279.37310001872726 L 78.26781138121095 268.81804557872726 L 78.26781138121095 258.2629911387273 L 17.591757400000006 258.2629911387273" stroke-miterlimit="10" stroke-width="2.5131082" stroke-dasharray=""/><text fill="black" stroke="none" font-family="sans-serif" font-size="9.600000000000001pt" font-style="normal" font-weight="bold" text-decoration="normal" x="35.183514800000005" y="272.33639705872724" text-anchor="start" dominant-baseline="alphabetic" xml:space="preserve">alt</text><g><rect fill="white" stroke="none" x="93.22080517121096" y="259.67033173072724" width="83.98368871902343" height="18.295427696"/></g><text fill="black" stroke="none" font-family="sans-serif" font-size="9.600000000000001pt" font-style="normal" font-weight="bold" text-decoration="normal" x="95.85956878121095" y="272.33639705872724" text-anchor="start" dominant-baseline="alphabetic" xml:space="preserve">[Valid Token]</text><g><path fill="none" stroke="black" paint-order="fill stroke markers" d=" M 17.591757400000006 2100.119990918726 L 2634.916662933333 2100.119990918726" stroke-miterlimit="10" stroke-width="2.5131082" stroke-dasharray="4.39793935"/></g><g/><g><rect fill="white" stroke="none" x="93.22080517121096" y="2101.527331510726" width="94.64617956375" height="18.295427696"/></g><text fill="black" stroke="none" font-family="sans-serif" font-size="9.600000000000001pt" font-style="normal" font-weight="bold" text-decoration="normal" x="95.85956878121095" y="2114.193396838726" text-anchor="start" dominant-baseline="alphabetic" xml:space="preserve">[Invalid Token]</text></g><g><g/><path fill="none" stroke="black" paint-order="fill stroke markers" d=" M 612.7566668233333 659.3550598587273 L 2617.324905533333 659.3550598587273 L 2617.324905533333 2024.475434098726 L 612.7566668233333 2024.475434098726 L 612.7566668233333 659.3550598587273 Z" stroke-miterlimit="10" stroke-width="2.5131082" stroke-dasharray=""/><path fill="white" stroke="black" paint-order="fill stroke markers" d=" M 612.7566668233333 659.3550598587273 L 612.7566668233333 680.4651687387272 L 674.9526480539973 680.4651687387272 L 685.5077024939974 669.9101142987273 L 685.5077024939974 659.3550598587273 L 612.7566668233333 659.3550598587273" stroke-miterlimit="10" stroke-width="2.5131082" stroke-dasharray=""/><text fill="black" stroke="none" font-family="sans-serif" font-size="9.600000000000001pt" font-style="normal" font-weight="bold" text-decoration="normal" x="630.3484242233333" y="673.4284657787273" text-anchor="start" dominant-baseline="alphabetic" xml:space="preserve">loop</text><g><rect fill="white" stroke="none" x="700.4606962839974" y="660.7624004507273" width="277.9834598371875" height="18.295427696"/></g><text fill="black" stroke="none" font-family="sans-serif" font-size="9.600000000000001pt" font-style="normal" font-weight="bold" text-decoration="normal" x="703.0994598939974" y="673.4284657787273" text-anchor="start" dominant-baseline="alphabetic" xml:space="preserve">[While driver not found and time &lt; TIMEOUT]</text></g><g><g/><path fill="none" stroke="black" paint-order="fill stroke markers" d=" M 1395.2101843333332 1049.892074138727 L 2254.5216517 1049.892074138727 L 2254.5216517 1315.5276108787268 L 1395.2101843333332 1315.5276108787268 L 1395.2101843333332 1049.892074138727 Z" stroke-miterlimit="10" stroke-width="2.5131082" stroke-dasharray=""/><path fill="white" stroke="black" paint-order="fill stroke markers" d=" M 1395.2101843333332 1049.892074138727 L 1395.2101843333332 1071.002183018727 L 1445.3311838745442 1071.002183018727 L 1455.8862383145442 1060.447128578727 L 1455.8862383145442 1049.892074138727 L 1395.2101843333332 1049.892074138727" stroke-miterlimit="10" stroke-width="2.5131082" stroke-dasharray=""/><text fill="black" stroke="none" font-family="sans-serif" font-size="9.600000000000001pt" font-style="normal" font-weight="bold" text-decoration="normal" x="1412.8019417333333" y="1063.965480058727" text-anchor="start" dominant-baseline="alphabetic" xml:space="preserve">alt</text><g><rect fill="white" stroke="none" x="1470.8392321045442" y="1051.299414730727" width="89.89619482253906" height="18.295427696"/></g><text fill="black" stroke="none" font-family="sans-serif" font-size="9.600000000000001pt" font-style="normal" font-weight="bold" text-decoration="normal" x="1473.4779957145442" y="1063.965480058727" text-anchor="start" dominant-baseline="alphabetic" xml:space="preserve">[Driver found]</text><g><path fill="none" stroke="black" paint-order="fill stroke markers" d=" M 1395.2101843333332 1218.7729451787268 L 2254.5216517 1218.7729451787268" stroke-miterlimit="10" stroke-width="2.5131082" stroke-dasharray="4.39793935"/></g><g/><g><rect fill="white" stroke="none" x="1470.8392321045442" y="1220.1802857707269" width="113.35241735671875" height="18.295427696"/></g><text fill="black" stroke="none" font-family="sans-serif" font-size="9.600000000000001pt" font-style="normal" font-weight="bold" text-decoration="normal" x="1473.4779957145442" y="1232.846351098727" text-anchor="start" dominant-baseline="alphabetic" xml:space="preserve">[Driver not found]</text></g><g/><g><g/><path fill="none" stroke="black" paint-order="fill stroke markers" d=" M 630.3484242233333 1391.1721676987268 L 2599.733148133333 1391.1721676987268 L 2599.733148133333 1998.0877979987263 L 630.3484242233333 1998.0877979987263 L 630.3484242233333 1391.1721676987268 Z" stroke-miterlimit="10" stroke-width="2.5131082" stroke-dasharray=""/><path fill="white" stroke="black" paint-order="fill stroke markers" d=" M 630.3484242233333 1391.1721676987268 L 630.3484242233333 1412.2822765787269 L 680.4694237645442 1412.2822765787269 L 691.0244782045443 1401.7272221387268 L 691.0244782045443 1391.1721676987268 L 630.3484242233333 1391.1721676987268" stroke-miterlimit="10" stroke-width="2.5131082" stroke-dasharray=""/><text fill="black" stroke="none" font-family="sans-serif" font-size="9.600000000000001pt" font-style="normal" font-weight="bold" text-decoration="normal" x="647.9401816233333" y="1405.245573618727" text-anchor="start" dominant-baseline="alphabetic" xml:space="preserve">alt</text><g><rect fill="white" stroke="none" x="705.9774719945443" y="1392.5795082907268" width="89.89619482253906" height="18.295427696"/></g><text fill="black" stroke="none" font-family="sans-serif" font-size="9.600000000000001pt" font-style="normal" font-weight="bold" text-decoration="normal" x="708.6162356045443" y="1405.245573618727" text-anchor="start" dominant-baseline="alphabetic" xml:space="preserve">[Driver found]</text></g><g><g/><path fill="none" stroke="black" paint-order="fill stroke markers" d=" M 647.9401816233333 1523.1103481987266 L 2582.141390733333 1523.1103481987266 L 2582.141390733333 1971.7001618987263 L 647.9401816233333 1971.7001618987263 L 647.9401816233333 1523.1103481987266 Z" stroke-miterlimit="10" stroke-width="2.5131082" stroke-dasharray=""/><path fill="white" stroke="black" paint-order="fill stroke markers" d=" M 647.9401816233333 1523.1103481987266 L 647.9401816233333 1544.2204570787267 L 698.0611811645442 1544.2204570787267 L 708.6162356045443 1533.6654026387266 L 708.6162356045443 1523.1103481987266 L 647.9401816233333 1523.1103481987266" stroke-miterlimit="10" stroke-width="2.5131082" stroke-dasharray=""/><text fill="black" stroke="none" font-family="sans-serif" font-size="9.600000000000001pt" font-style="normal" font-weight="bold" text-decoration="normal" x="665.5319390233333" y="1537.1837541187267" text-anchor="start" dominant-baseline="alphabetic" xml:space="preserve">alt</text><g><rect fill="white" stroke="none" x="723.5692293945443" y="1524.5176887907267" width="116.23367346023437" height="18.295427696"/></g><text fill="black" stroke="none" font-family="sans-serif" font-size="9.600000000000001pt" font-style="normal" font-weight="bold" text-decoration="normal" x="726.2079930045443" y="1537.1837541187267" text-anchor="start" dominant-baseline="alphabetic" xml:space="preserve">[Driver confirmed]</text><g><path fill="none" stroke="black" paint-order="fill stroke markers" d=" M 647.9401816233333 1735.9706127387262 L 2582.141390733333 1735.9706127387262" stroke-miterlimit="10" stroke-width="2.5131082" stroke-dasharray="4.39793935"/></g><g/><g><rect fill="white" stroke="none" x="723.5692293945443" y="1737.3779533307263" width="95.60868871902343" height="18.295427696"/></g><text fill="black" stroke="none" font-family="sans-serif" font-size="9.600000000000001pt" font-style="normal" font-weight="bold" text-decoration="normal" x="726.2079930045443" y="1750.0440186587264" text-anchor="start" dominant-baseline="alphabetic" xml:space="preserve">[Driver denied]</text></g><g/><g/></g><g/><g/><g/><g/><g/><g/></g></svg>